<svg xmlns="http://www.w3.org/2000/svg" width="383.771" height="96.156" viewBox="0 0 383.771 96.156"><path fill="#FFF" d="M0 8.216h14.048V72.46H0zM328.162 4.665c-18.767 0-34.032 15.268-34.032 34.034 0 7.28 2.306 14.027 6.214 19.567L270.266 84.7c-1.88 1.877.067 6.866 1.944 8.748 1.88 1.876 6.87 3.822 8.748 1.943l26.265-29.893c5.78 4.525 13.047 7.233 20.94 7.233 18.767 0 34.033-15.267 34.033-34.032 0-18.765-15.266-34.033-34.034-34.033zm0 56.722c-12.51 0-22.69-10.177-22.69-22.688s10.18-22.69 22.69-22.69c12.513 0 22.688 10.18 22.688 22.69s-10.175 22.687-22.688 22.687zM86.21 8.433h15.108l12.302 28.38 12.194-28.488h15l-27.302 64.102M203.65 72.318h15.198V43.075l35.69 31.05V7.96H239.34v29.014L203.65 8.076M27.65 72.484h15.198V43.24l35.69 31.05V8.127H63.34V37.14L27.65 8.242"/><path fill="#FFF" d="M268 7.05h14.05v64.243H268zM149.193 7.974V72.08h44.456V59.345h-26.674V45.624h24.807V32.672h-24.807V20.927h26.015V7.974M375.104 38.08c.174 18.183-8.123 32.125-11.51 37.52 8.183-5.348 19.898-19.36 19.674-37.662.174-18.183-11.43-32.127-19.63-37.52 3.322 5.347 11.69 19.36 11.466 37.66z"/><path fill="none" stroke="#FFF" d="M375.104 38.08c.174 18.183-8.123 32.125-11.51 37.52 8.183-5.348 19.898-19.36 19.674-37.662.174-18.183-11.43-32.127-19.63-37.52 3.322 5.347 11.69 19.36 11.466 37.66z"/></svg>