<svg xmlns="http://www.w3.org/2000/svg" height="1026" style="width:1724px;height:1026px" viewBox="0 0 1724 1026" width="1724"><defs><filter height="300%" id="a" width="300%" x="-1" y="-1"><feGaussianBlur result="blurOut" stdDeviation="2"/><feColorMatrix in="blurOut" result="blurOut2" values="0 0 0 0 0 0 0 0 0 0 0 0 0 0 0 0 0 0 .4 0"/><feOffset dx="4" dy="4" in="blurOut2" result="blurOut3"/><feBlend in="SourceGraphic" in2="blurOut3"/></filter></defs><text font-family="sans-serif" font-size="18" lengthAdjust="spacingAndGlyphs" textLength="436" x="650.25" y="16.708">Setup as described in `docker-compose-dev.yml`</text><path d="M610.25 765.953c0-3 2-5 5-5s5 2 5 5c0-3 2-5 5-5s5 2 5 5c0-3 2-5 5-5s5 2 5 5c0-3 2-5 5-5s5 2 5 5c0-3 2-5 5-5s5 2 5 5c0-3 2-5 5-5s5 2 5 5c0-3 2-5 5-5s5 2 5 5c0-3 2-5 5-5s5 2 5 5c0-3 2-5 5-5s5 2 5 5c0-3 2-5 5-5s5 2 5 5c0-3 2-5 5-5s5 2 5 5c0-3 2-5 5-5s5 2 5 5c0-3 2-5 5-5s5 2 5 5c0-3 2-5 5-5s5 2 5 5c0-3 2-5 5-5s5 2 5 5c0-3 2-5 5-5s5 2 5 5c0-3 2-5 5-5s5 2 5 5c0-3 2-5 5-5s5 2 5 5c0-3 2-5 5-5s5 2 5 5c0-3 2-5 5-5s5 2 5 5c0-3 2-5 5-5s5 2 5 5c0-3 2-5 5-5s5 2 5 5c0-3 2-5 5-5s5 2 5 5c0-3 2-5 5-5s5 2 5 5c0-3 2-5 5-5s5 2 5 5c0-3 2-5 5-5s5 2 5 5c0-3 2-5 5-5s5 2 5 5c0-3 2-5 5-5s5 2 5 5c0-3 2-5 5-5s5 2 5 5c0-3 2-5 5-5s5 2 5 5c0-3 2-5 5-5s5 2 5 5c0-3 2-5 5-5s5 2 5 5c0-3 2-5 5-5s5 2 5 5c0-3 2-5 5-5s5 2 5 5c0-3 2-5 5-5s5 2 5 5c3 0 5 2 5 5s-2 5-5 5c3 0 5 2 5 5s-2 5-5 5c3 0 5 2 5 5s-2 5-5 5c3 0 5 2 5 5s-2 5-5 5c3 0 5 2 5 5s-2 5-5 5c3 0 5 2 5 5s-2 5-5 5c3 0 5 2 5 5s-2 5-5 5c3 0 5 2 5 5s-2 5-5 5c3 0 5 2 5 5s-2 5-5 5c3 0 5 2 5 5s-2 5-5 5c0 3-3 5-5 5-3 0-5-2-5-5 0 3-3 5-5 5-3 0-5-2-5-5 0 3-3 5-5 5-3 0-5-2-5-5 0 3-3 5-5 5-3 0-5-2-5-5 0 3-3 5-5 5-3 0-5-2-5-5 0 3-3 5-5 5-3 0-5-2-5-5 0 3-3 5-5 5-3 0-5-2-5-5 0 3-3 5-5 5-3 0-5-2-5-5 0 3-3 5-5 5-3 0-5-2-5-5 0 3-3 5-5 5-3 0-5-2-5-5 0 3-3 5-5 5-3 0-5-2-5-5 0 3-3 5-5 5-3 0-5-2-5-5 0 3-3 5-5 5-3 0-5-2-5-5 0 3-3 5-5 5-3 0-5-2-5-5 0 3-3 5-5 5-3 0-5-2-5-5 0 3-3 5-5 5-3 0-5-2-5-5 0 3-3 5-5 5-3 0-5-2-5-5 0 3-3 5-5 5-3 0-5-2-5-5 0 3-3 5-5 5-3 0-5-2-5-5 0 3-3 5-5 5-3 0-5-2-5-5 0 3-3 5-5 5-3 0-5-2-5-5 0 3-3 5-5 5-3 0-5-2-5-5 0 3-3 5-5 5-3 0-5-2-5-5 0 3-3 5-5 5-3 0-5-2-5-5 0 3-3 5-5 5-3 0-5-2-5-5 0 3-3 5-5 5-3 0-5-2-5-5 0 3-3 5-5 5-3 0-5-2-5-5 0 3-3 5-5 5-3 0-5-2-5-5 0 3-3 5-5 5-3 0-5-2-5-5 0 3-3 5-5 5-3 0-5-2-5-5 0 3-3 5-5 5-3 0-5-2-5-5 0 3-3 5-5 5-3 0-5-2-5-5 0 3-3 5-5 5-3 0-5-2-5-5 0 3-3 5-5 5-3 0-5-2-5-5 0 3-3 5-5 5-3 0-5-2-5-5-3 0-5-2-5-5s2-5 5-5c-3 0-5-2-5-5s2-5 5-5c-3 0-5-2-5-5s2-5 5-5c-3 0-5-2-5-5s2-5 5-5c-3 0-5-2-5-5s2-5 5-5c-3 0-5-2-5-5s2-5 5-5c-3 0-5-2-5-5s2-5 5-5c-3 0-5-2-5-5s2-5 5-5c-3 0-5-2-5-5s2-5 5-5c-3 0-5-2-5-5s2-5 5-5" fill="#FFF" filter="url(#a)" stroke="#000" stroke-width="2"/><text font-family="sans-serif" font-size="14" font-weight="bold" lengthAdjust="spacingAndGlyphs" textLength="101" x="733.75" y="784.948">host storage</text><path d="M1004.25 765.953c0-3 2-5 5-5s5 2 5 5c0-3 2-5 5-5s5 2 5 5c0-3 2-5 5-5s5 2 5 5c0-3 2-5 5-5s5 2 5 5c0-3 2-5 5-5s5 2 5 5c0-3 2-5 5-5s5 2 5 5c0-3 2-5 5-5s5 2 5 5c0-3 2-5 5-5s5 2 5 5c0-3 2-5 5-5s5 2 5 5c0-3 2-5 5-5s5 2 5 5c0-3 2-5 5-5s5 2 5 5c0-3 2-5 5-5s5 2 5 5c0-3 2-5 5-5s5 2 5 5c0-3 2-5 5-5s5 2 5 5c0-3 2-5 5-5s5 2 5 5c0-3 2-5 5-5s5 2 5 5c0-3 2-5 5-5s5 2 5 5c0-3 2-5 5-5s5 2 5 5c0-3 2-5 5-5s5 2 5 5c0-3 2-5 5-5s5 2 5 5c0-3 2-5 5-5s5 2 5 5c0-3 2-5 5-5s5 2 5 5c0-3 2-5 5-5s5 2 5 5c0-3 2-5 5-5s5 2 5 5c0-3 2-5 5-5s5 2 5 5c0-3 2-5 5-5s5 2 5 5c0-3 2-5 5-5s5 2 5 5c0-3 2-5 5-5s5 2 5 5c0-3 2-5 5-5s5 2 5 5c0-3 2-5 5-5s5 2 5 5c0-3 2-5 5-5s5 2 5 5c0-3 2-5 5-5s5 2 5 5c0-3 2-5 5-5s5 2 5 5c0-3 2-5 5-5s5 2 5 5c0-3 2-5 5-5s5 2 5 5c0-3 2-5 5-5s5 2 5 5c0-3 2-5 5-5s5 2 5 5c0-3 2-5 5-5s5 2 5 5c0-3 2-5 5-5s5 2 5 5c0-3 2-5 5-5s5 2 5 5c0-3 2-5 5-5s5 2 5 5c0-3 2-5 5-5s5 2 5 5c0-3 2-5 5-5s5 2 5 5c0-3 2-5 5-5s5 2 5 5c0-3 2-5 5-5s5 2 5 5c0-3 2-5 5-5s5 2 5 5c0-3 2-5 5-5s5 2 5 5c0-3 2-5 5-5s5 2 5 5c0-3 2-5 5-5s5 2 5 5c0-3 2-5 5-5s5 2 5 5c0-3 2-5 5-5s5 2 5 5c0-3 2-5 5-5s5 2 5 5c0-3 2-5 5-5s5 2 5 5c0-3 2-5 5-5s5 2 5 5c0-3 2-5 5-5s5 2 5 5c0-3 2-5 5-5s5 2 5 5c0-3 2-5 5-5s5 2 5 5c3 0 5 2 5 5s-2 5-5 5c3 0 5 2 5 5s-2 5-5 5c3 0 5 2 5 5s-2 5-5 5c3 0 5 2 5 5s-2 5-5 5c3 0 5 2 5 5s-2 5-5 5c3 0 5 2 5 5s-2 5-5 5c3 0 5 2 5 5s-2 5-5 5c3 0 5 2 5 5s-2 5-5 5c3 0 5 2 5 5s-2 5-5 5c3 0 5 2 5 5s-2 5-5 5c0 3-3 5-5 5-3 0-5-2-5-5 0 3-3 5-5 5-3 0-5-2-5-5 0 3-3 5-5 5-3 0-5-2-5-5 0 3-3 5-5 5-3 0-5-2-5-5 0 3-3 5-5 5-3 0-5-2-5-5 0 3-3 5-5 5-3 0-5-2-5-5 0 3-3 5-5 5-3 0-5-2-5-5 0 3-3 5-5 5-3 0-5-2-5-5 0 3-3 5-5 5-3 0-5-2-5-5 0 3-3 5-5 5-3 0-5-2-5-5 0 3-3 5-5 5-3 0-5-2-5-5 0 3-3 5-5 5-3 0-5-2-5-5 0 3-3 5-5 5-3 0-5-2-5-5 0 3-3 5-5 5-3 0-5-2-5-5 0 3-3 5-5 5-3 0-5-2-5-5 0 3-3 5-5 5-3 0-5-2-5-5 0 3-3 5-5 5-3 0-5-2-5-5 0 3-3 5-5 5-3 0-5-2-5-5 0 3-3 5-5 5-3 0-5-2-5-5 0 3-3 5-5 5-3 0-5-2-5-5 0 3-3 5-5 5-3 0-5-2-5-5 0 3-3 5-5 5-3 0-5-2-5-5 0 3-3 5-5 5-3 0-5-2-5-5 0 3-3 5-5 5-3 0-5-2-5-5 0 3-3 5-5 5-3 0-5-2-5-5 0 3-3 5-5 5-3 0-5-2-5-5 0 3-3 5-5 5-3 0-5-2-5-5 0 3-3 5-5 5-3 0-5-2-5-5 0 3-3 5-5 5-3 0-5-2-5-5 0 3-3 5-5 5-3 0-5-2-5-5 0 3-3 5-5 5-3 0-5-2-5-5 0 3-3 5-5 5-3 0-5-2-5-5 0 3-3 5-5 5-3 0-5-2-5-5 0 3-3 5-5 5-3 0-5-2-5-5 0 3-3 5-5 5-3 0-5-2-5-5 0 3-3 5-5 5-3 0-5-2-5-5 0 3-3 5-5 5-3 0-5-2-5-5 0 3-3 5-5 5-3 0-5-2-5-5 0 3-3 5-5 5-3 0-5-2-5-5 0 3-3 5-5 5-3 0-5-2-5-5 0 3-3 5-5 5-3 0-5-2-5-5 0 3-3 5-5 5-3 0-5-2-5-5 0 3-3 5-5 5-3 0-5-2-5-5 0 3-3 5-5 5-3 0-5-2-5-5 0 3-3 5-5 5-3 0-5-2-5-5 0 3-3 5-5 5-3 0-5-2-5-5 0 3-3 5-5 5-3 0-5-2-5-5 0 3-3 5-5 5-3 0-5-2-5-5 0 3-3 5-5 5-3 0-5-2-5-5 0 3-3 5-5 5-3 0-5-2-5-5 0 3-3 5-5 5-3 0-5-2-5-5 0 3-3 5-5 5-3 0-5-2-5-5 0 3-3 5-5 5-3 0-5-2-5-5 0 3-3 5-5 5-3 0-5-2-5-5 0 3-3 5-5 5-3 0-5-2-5-5 0 3-3 5-5 5-3 0-5-2-5-5 0 3-3 5-5 5-3 0-5-2-5-5-3 0-5-2-5-5s2-5 5-5c-3 0-5-2-5-5s2-5 5-5c-3 0-5-2-5-5s2-5 5-5c-3 0-5-2-5-5s2-5 5-5c-3 0-5-2-5-5s2-5 5-5c-3 0-5-2-5-5s2-5 5-5c-3 0-5-2-5-5s2-5 5-5c-3 0-5-2-5-5s2-5 5-5c-3 0-5-2-5-5s2-5 5-5c-3 0-5-2-5-5s2-5 5-5" fill="#FFF" filter="url(#a)" stroke="#000" stroke-width="2"/><text font-family="sans-serif" font-size="14" font-weight="bold" lengthAdjust="spacingAndGlyphs" textLength="121" x="1227.25" y="784.948">shared storage</text><path fill="#FFF" filter="url(#a)" stroke="#000" stroke-width="2" d="M1349.25 386.953l10-10h127v99l-10 10h-127v-99z"/><path stroke="#000" stroke-width="2" d="M1476.25 386.953l9-9M1349.25 386.953h127M1476.25 386.953v99"/><text font-family="sans-serif" font-size="14" font-weight="bold" lengthAdjust="spacingAndGlyphs" textLength="46" x="1390.75" y="402.948">mysql</text><path fill="#FFF" filter="url(#a)" stroke="#000" stroke-width="2" d="M723.25 386.953l10-10h139v99l-10 10h-139v-99z"/><path stroke="#000" stroke-width="2" d="M862.25 386.953l9-9M723.25 386.953h139M862.25 386.953v99"/><text font-family="sans-serif" font-size="14" font-weight="bold" lengthAdjust="spacingAndGlyphs" textLength="46" x="770.75" y="402.948">rabbit</text><path fill="#FFF" filter="url(#a)" stroke="#000" stroke-width="2" d="M912.25 386.953l10-10h159v99l-10 10h-159v-99z"/><path stroke="#000" stroke-width="2" d="M1071.25 386.953l9-9M912.25 386.953h159M1071.25 386.953v99"/><text font-family="sans-serif" font-size="14" font-weight="bold" lengthAdjust="spacingAndGlyphs" textLength="40" x="972.75" y="402.948">redis</text><path fill="#FFF" filter="url(#a)" stroke="#000" stroke-width="2" d="M694.25 577.953l10-10h253v99l-10 10h-253v-99z"/><path stroke="#000" stroke-width="2" d="M947.25 577.953l9-9M694.25 577.953h253M947.25 577.953v99"/><text font-family="sans-serif" font-size="14" font-weight="bold" lengthAdjust="spacingAndGlyphs" textLength="34" x="804.75" y="593.948">web</text><path fill="#FFF" filter="url(#a)" stroke="#000" stroke-width="2" d="M997.25 577.953l10-10h169v99l-10 10h-169v-99z"/><path stroke="#000" stroke-width="2" d="M1166.25 577.953l9-9M997.25 577.953h169M1166.25 577.953v99"/><text font-family="sans-serif" font-size="14" font-weight="bold" lengthAdjust="spacingAndGlyphs" textLength="57" x="1054.25" y="593.948">worker</text><path d="M1602 812.953c0-3 2-5 5-5s5 2 5 5c0-3 2-5 5-5s5 2 5 5c0-3 2-5 5-5s5 2 5 5c0-3 2-5 5-5s5 2 5 5c0-3 2-5 5-5s5 2 5 5c0-3 2-5 5-5s5 2 5 5c0-3 2-5 5-5s5 2 5 5c0-3 2-5 5-5s5 2 5 5c0-3 2-5 5-5s5 2 5 5c0-3 2-5 5-5s5 2 5 5c0-3 2-5 5-5s5 2 5 5c3 0 5 2 5 5s-2 5-5 5c3 0 5 2 5 5s-2 5-5 5c0 3-3 5-5 5-3 0-5-2-5-5 0 3-3 5-5 5-3 0-5-2-5-5 0 3-3 5-5 5-3 0-5-2-5-5 0 3-3 5-5 5-3 0-5-2-5-5 0 3-3 5-5 5-3 0-5-2-5-5 0 3-3 5-5 5-3 0-5-2-5-5 0 3-3 5-5 5-3 0-5-2-5-5 0 3-3 5-5 5-3 0-5-2-5-5 0 3-3 5-5 5-3 0-5-2-5-5 0 3-3 5-5 5-3 0-5-2-5-5 0 3-3 5-5 5-3 0-5-2-5-5-3 0-5-2-5-5s2-5 5-5c-3 0-5-2-5-5s2-5 5-5" fill="#FFF" filter="url(#a)" stroke="#A80036" stroke-width="1.5"/><text font-family="sans-serif" font-size="14" lengthAdjust="spacingAndGlyphs" textLength="99" x="1609" y="828.948">public internet</text><path d="M874 813.453c0-10 31.5-10 31.5-10s31.5 0 31.5 10v21.297c0 10-31.5 10-31.5 10s-31.5 0-31.5-10v-21.297" fill="#0FF" filter="url(#a)" stroke="#000" stroke-width="1.5"/><path d="M874 813.453c0 10 31.5 10 31.5 10s31.5 0 31.5-10" fill="none" stroke="#000" stroke-width="1.5"/><text font-family="sans-serif" font-size="14" lengthAdjust="spacingAndGlyphs" textLength="43" x="884" y="836.448">./docs</text><path d="M650.25 813.453c0-10 39-10 39-10s39 0 39 10v21.297c0 10-39 10-39 10s-39 0-39-10v-21.297" fill="gray" filter="url(#a)" stroke="#000" stroke-width="1.5"/><path d="M650.25 813.453c0 10 39 10 39 10s39 0 39-10" fill="none" stroke="#000" stroke-width="1.5"/><text font-family="sans-serif" font-size="14" lengthAdjust="spacingAndGlyphs" textLength="58" x="660.25" y="836.448">./invenio</text><path d="M764 813.453c0-10 37.5-10 37.5-10s37.5 0 37.5 10v21.297c0 10-37.5 10-37.5 10s-37.5 0-37.5-10v-21.297" fill="gray" filter="url(#a)" stroke="#000" stroke-width="1.5"/><path d="M764 813.453c0 10 37.5 10 37.5 10s37.5 0 37.5-10" fill="none" stroke="#000" stroke-width="1.5"/><text font-family="sans-serif" font-size="14" lengthAdjust="spacingAndGlyphs" textLength="55" x="774" y="836.448">./scripts</text><path d="M1431 813.453c0-10 59.5-10 59.5-10s59.5 0 59.5 10v21.297c0 10-59.5 10-59.5 10s-59.5 0-59.5-10v-21.297" fill="#FFF" filter="url(#a)" stroke="#000" stroke-width="1.5"/><path d="M1431 813.453c0 10 59.5 10 59.5 10s59.5 0 59.5-10" fill="none" stroke="#000" stroke-width="1.5"/><text font-family="sans-serif" font-size="14" lengthAdjust="spacingAndGlyphs" textLength="99" x="1441" y="836.448">/home/invenio</text><path d="M1131.25 813.453c0-10 132-10 132-10s132 0 132 10v21.297c0 10-132 10-132 10s-132 0-132-10v-21.297" fill="#FFF" filter="url(#a)" stroke="#000" stroke-width="1.5"/><path d="M1131.25 813.453c0 10 132 10 132 10s132 0 132-10" fill="none" stroke="#000" stroke-width="1.5"/><text font-family="sans-serif" font-size="14" lengthAdjust="spacingAndGlyphs" textLength="244" x="1141.25" y="836.448">/usr/local/var/invenio.base-instance</text><path d="M1044.25 813.453c0-10 26-10 26-10s26 0 26 10v21.297c0 10-26 10-26 10s-26 0-26-10v-21.297" fill="#FFF" filter="url(#a)" stroke="#000" stroke-width="1.5"/><path d="M1044.25 813.453c0 10 26 10 26 10s26 0 26-10" fill="none" stroke="#000" stroke-width="1.5"/><text font-family="sans-serif" font-size="14" lengthAdjust="spacingAndGlyphs" textLength="32" x="1054.25" y="836.448">/tmp</text><path fill="gray" filter="url(#a)" stroke="#000" stroke-width="1.5" d="M1509 234.953l10-10h113v36.297l-10 10h-113v-36.297z"/><path stroke="#000" stroke-width="1.5" d="M1622 234.953l9-9M1509 234.953h113M1622 234.953v36.297"/><text font-family="sans-serif" font-size="14" lengthAdjust="spacingAndGlyphs" textLength="83" x="1524" y="257.948">mysql:latest</text><path fill="gray" filter="url(#a)" stroke="#000" stroke-width="1.5" d="M314.25 234.953l10-10h202v36.297l-10 10h-202v-36.297z"/><path stroke="#000" stroke-width="1.5" d="M516.25 234.953l9-9M314.25 234.953h202M516.25 234.953v36.297"/><text font-family="sans-serif" font-size="14" lengthAdjust="spacingAndGlyphs" textLength="172" x="329.25" y="257.948">rabbitmq:3-management</text><path fill="gray" filter="url(#a)" stroke="#000" stroke-width="1.5" d="M981 234.953l10-10h107v36.297l-10 10H981v-36.297z"/><path stroke="#000" stroke-width="1.5" d="M1088 234.953l9-9M981 234.953h107M1088 234.953v36.297"/><text font-family="sans-serif" font-size="14" lengthAdjust="spacingAndGlyphs" textLength="77" x="996" y="257.948">redis:latest</text><path fill="gray" filter="url(#a)" stroke="#000" stroke-width="1.5" d="M1126 38.953l10-10h137V65.25l-10 10h-137V38.953z"/><path stroke="#000" stroke-width="1.5" d="M1263 38.953l9-9M1126 38.953h137M1263 38.953V75.25"/><text font-family="sans-serif" font-size="14" lengthAdjust="spacingAndGlyphs" textLength="107" x="1141" y="61.948">python:2.7-slim</text><path fill="gray" filter="url(#a)" stroke="#000" stroke-width="1.5" d="M1133.25 234.953l10-10h122v36.297l-10 10h-122v-36.297z"/><path stroke="#000" stroke-width="1.5" d="M1255.25 234.953l9-9M1133.25 234.953h122M1255.25 234.953v36.297"/><text font-family="sans-serif" font-size="14" lengthAdjust="spacingAndGlyphs" textLength="92" x="1148.25" y="257.948">invenio:latest</text><path fill="gray" filter="url(#a)" stroke="#000" stroke-width="1.5" d="M1106 430.953l10-10h177v36.297l-10 10h-177v-36.297z"/><path stroke="#000" stroke-width="1.5" d="M1283 430.953l9-9M1106 430.953h177M1283 430.953v36.297"/><text font-family="sans-serif" font-size="14" lengthAdjust="spacingAndGlyphs" textLength="147" x="1121" y="453.948">invenio_overlay:latest</text><path fill="#FEFECE" filter="url(#a)" stroke="#000" stroke-width="1.5" d="M1393 425.953h69v36.297h-69z"/><path fill="#FEFECE" stroke="#000" stroke-width="1.5" d="M1388 430.953h10v5h-10zM1388 452.25h10v5h-10z"/><text font-family="sans-serif" font-size="14" lengthAdjust="spacingAndGlyphs" textLength="49" x="1403" y="448.948">mysqld</text><path fill="#FEFECE" filter="url(#a)" stroke="#000" stroke-width="1.5" d="M767 425.953h81v36.297h-81z"/><path fill="#FEFECE" stroke="#000" stroke-width="1.5" d="M762 430.953h10v5h-10zM762 452.25h10v5h-10z"/><text font-family="sans-serif" font-size="14" lengthAdjust="spacingAndGlyphs" textLength="61" x="777" y="448.948">rabbitmq</text><path fill="#FEFECE" filter="url(#a)" stroke="#000" stroke-width="1.5" d="M955.25 425.953h102v36.297h-102z"/><path fill="#FEFECE" stroke="#000" stroke-width="1.5" d="M950.25 430.953h10v5h-10zM950.25 452.25h10v5h-10z"/><text font-family="sans-serif" font-size="14" lengthAdjust="spacingAndGlyphs" textLength="82" x="965.25" y="448.948">redis-server</text><path fill="#FEFECE" filter="url(#a)" stroke="#000" stroke-width="1.5" d="M738 616.953h195v36.297H738z"/><path fill="#FEFECE" stroke="#000" stroke-width="1.5" d="M733 621.953h10v5h-10zM733 643.25h10v5h-10z"/><text font-family="sans-serif" font-size="14" lengthAdjust="spacingAndGlyphs" textLength="175" x="748" y="639.948">inveniomanage runserver</text><path fill="#FEFECE" filter="url(#a)" stroke="#000" stroke-width="1.5" d="M1021.25 616.953h112v36.297h-112z"/><path fill="#FEFECE" stroke="#000" stroke-width="1.5" d="M1016.25 621.953h10v5h-10zM1016.25 643.25h10v5h-10z"/><text font-family="sans-serif" font-size="14" lengthAdjust="spacingAndGlyphs" textLength="92" x="1031.25" y="639.948">celery worker</text><ellipse cx="620.25" cy="435.953" fill="#FEFECE" filter="url(#a)" rx="8" ry="8" stroke="#A80036" stroke-width="2"/><text font-family="sans-serif" font-size="14" lengthAdjust="spacingAndGlyphs" textLength="152" x="544.25" y="457.948">TTY via `docker exec`</text><ellipse cx="398.25" cy="435.953" fill="#FEFECE" filter="url(#a)" rx="8" ry="8" stroke="#A80036" stroke-width="2"/><text font-family="sans-serif" font-size="14" lengthAdjust="spacingAndGlyphs" textLength="222" x="287.25" y="457.948">webinterface at localhost:28080</text><ellipse cx="905.5" cy="1003.953" fill="#FEFECE" filter="url(#a)" rx="8" ry="8" stroke="#A80036" stroke-width="2"/><text font-family="sans-serif" font-size="14" lengthAdjust="spacingAndGlyphs" textLength="89" x="861" y="1025.948">builded docs</text><ellipse cx="703.5" cy="1003.953" fill="#FEFECE" filter="url(#a)" rx="8" ry="8" stroke="#A80036" stroke-width="2"/><text font-family="sans-serif" font-size="14" lengthAdjust="spacingAndGlyphs" textLength="217" x="595" y="1025.948">live code and template updates</text><ellipse cx="1387.5" cy="239.953" fill="#FEFECE" filter="url(#a)" rx="8" ry="8" stroke="#A80036" stroke-width="2"/><text font-family="sans-serif" font-size="14" lengthAdjust="spacingAndGlyphs" textLength="173" x="1301" y="261.948">mysql at localhost:23306</text><ellipse cx="142.5" cy="239.953" fill="#FEFECE" filter="url(#a)" rx="8" ry="8" stroke="#A80036" stroke-width="2"/><text font-family="sans-serif" font-size="14" lengthAdjust="spacingAndGlyphs" textLength="273" x="6" y="261.948">rabbitmq web admin at localhost:25672</text><ellipse cx="753.25" cy="239.953" fill="#FEFECE" filter="url(#a)" rx="8" ry="8" stroke="#A80036" stroke-width="2"/><text font-family="sans-serif" font-size="14" lengthAdjust="spacingAndGlyphs" textLength="384" x="561.25" y="261.948">redis + celery debug (e.g. via flower) at localhost:26379</text><path d="M1490.22 277.288c-39.91 18.05-85.6 45.353-113.97 83.665-3.71 5.006-6.71 10.618-9.13 16.495M1487.51 270.832l21.14-1.43-15.63 14.3-5.51-12.87zM507.726 272.418c75.937 22.09 177.925 56.483 205.524 88.535 4.422 5.136 7.832 11.11 10.45 17.452" fill="none" stroke="#000"/><path stroke="#000" d="M502.763 270.98l7.532 6.346-2.73-4.954 4.956-2.73-9.757 1.338z"/><path d="M998.432 285.025c-20.64 20.356-44.387 47.39-59.182 75.928-2.67 5.153-4.97 10.68-6.95 16.343M993.74 279.826l19.33-8.674-9.7 18.837-9.63-10.164zM1199.25 95.437V224.66M1192.25 95.207l7-20 7 20h-14zM1199.25 291.437V420.66M1192.25 291.207l7-20 7 20h-14zM1140.33 475.782c-20.73 9.71-44.49 19.602-67.08 26.17-75.865 22.06-293.768-3.395-352 50-5.008 4.593-8.824 10.223-11.715 16.36M1137.33 469.453l21.05-2.435-14.93 15.03-6.12-12.595zM1192.35 487.022c-4.77 29.063-11.12 67.806-16.11 98.21M1185.49 485.607l10.14-18.603 3.67 20.87-13.81-2.267zM694.667 645.425c-14.004 17.955-43.99 58.636-60.417 97.528-1.552 3.674-2.99 7.5-4.324 11.398" fill="none" stroke="#000"/><path stroke="#000" d="M628.294 759.323l6.608-7.303-5.048 2.553-2.553-5.05.994 9.8z"/><path d="M1161.27 676.486c-2.78 6.33-6.65 12.184-12.02 16.467-89.92 71.665-428.344-25.575-515 50-3.855 3.362-7.003 7.35-9.567 11.724" fill="none" stroke="#000"/><path stroke="#000" d="M622.31 759.17l7.74-6.09-5.405 1.67-1.67-5.406-.665 9.826z"/><path d="M709.9 676.547c2.712 6.172 6.383 11.955 11.35 16.406 78.554 70.392 144.13-8.348 232 50 21.285 14.134 36.916 39.35 46.174 57.704" fill="none" stroke="#000"/><path stroke="#000" d="M1001.64 805.165l-.38-9.84-1.826 5.353-5.354-1.825 7.56 6.312z"/><path d="M1159.53 676.676c-2.59 5.944-5.94 11.62-10.28 16.277-39.68 42.562-83.25 5.723-121 50-3.06 3.584-5.64 7.573-7.82 11.802" fill="none" stroke="#000"/><path stroke="#000" d="M1018.21 759.432l7.47-6.42-5.328 1.902-1.9-5.328-.242 9.846z"/><path d="M1417.83 466.926c-6.48 12.355-16.32 26.89-29.58 35.027-146.32 89.77-218.48.974-383 50-52.6 15.675-109.146 45.942-141.956 64.996" fill="none" stroke="#000" stroke-dasharray="7.0,7.0"/><path stroke="#000" d="M1420.23 462.14l-7.612 6.25 5.37-1.78 1.78 5.37.462-9.84z"/><path d="M810.576 467.406L832.7 616.75" fill="none" stroke="#000" stroke-dasharray="7.0,7.0"/><path stroke="#000" d="M809.784 462.06l-2.638 9.488 3.37-4.543 4.544 3.37-5.276-8.316z"/><path d="M987.195 466.014L850.815 616.75" fill="none" stroke="#000" stroke-dasharray="7.0,7.0"/><path stroke="#000" d="M990.773 462.06l-9.005 3.987 5.65-.28.28 5.65 3.075-9.358z"/><path d="M1417.49 466.856c-6.55 12.19-16.34 26.58-29.24 35.097-94.91 62.687-155.11-11.177-251 50-24.84 15.844-42.8 45.912-52.29 64.903" fill="none" stroke="#000" stroke-dasharray="7.0,7.0"/><path stroke="#000" d="M1419.93 462.137l-7.684 6.16 5.39-1.717 1.72 5.39.574-9.833z"/><path d="M836.04 465.106c53.342 37.34 166.643 116.65 216.63 151.644" fill="none" stroke="#000" stroke-dasharray="7.0,7.0"/><path stroke="#000" d="M831.687 462.06l5.08 8.437-.984-5.57 5.57-.983-9.666-1.885z"/><path d="M1014.51 466.938c14.29 38.044 43.34 115.38 56.28 149.812" fill="none" stroke="#000" stroke-dasharray="7.0,7.0"/><path stroke="#000" d="M1012.68 462.06l-.573 9.83 2.335-5.15 5.152 2.333-6.914-7.014z"/><path d="M424.17 461.067c65.016 40.422 232.536 144.57 270.397 168.11M627.24 461.067l67.295 155.105" fill="none" stroke="#000" stroke-dasharray="7.0,7.0"/><path d="M905.25 849.97v139.656" fill="none" stroke="#000"/><path stroke="#000" d="M905.25 994.88l4-9-4 4-4-4 4 9zM905.25 844.507l-4 9 4-4 4 4-4-9z"/><path d="M691.097 849.496c2.912 38.683 8.49 112.78 10.943 145.385" fill="none" stroke="#000"/><path stroke="#000" d="M690.722 844.507l-3.312 9.275 3.688-4.29 4.29 3.69-4.666-8.675z"/><path d="M788.567 849.024c-20.31 38.55-59.6 113.12-76.85 145.857" fill="none" stroke="#000"/><path stroke="#000" d="M790.948 844.507l-7.734 6.098 5.404-1.674 1.674 5.404.656-9.827z"/><path d="M1384.74 265.16c-3.78 24.472-11.17 72.235-17.33 112.098M771.18 265.12c22.83 21 62.922 59.308 93.07 95.833 19.136 23.183 38.185 52.83 48.387 69.378M238.434 265.002c158.253 26.8 457.854 79.364 474.816 95.95 4.745 4.64 8.37 10.224 11.127 16.268M709.1 676.655c2.792 6.314 6.697 12.117 12.15 16.298 149.283 114.448 670.84-21.067 845 50 30.61 12.49 58.11 39.518 74.91 58.695" fill="none" stroke="#000" stroke-dasharray="7.0,7.0"/><path stroke="#000" d="M1644.78 805.855l-2.846-9.43-.418 5.643-5.642-.42 8.906 4.207z"/><path d="M1176.21 636.75c42.48 4.516 245.91 29.476 390.04 106.203 28.49 15.165 55.68 40.643 73.01 58.77" fill="none" stroke="#000" stroke-dasharray="7.0,7.0"/><path stroke="#000" d="M1643.02 805.703l-3.28-9.286-.157 5.655-5.655-.156 9.092 3.787z"/></svg>