<svg xmlns="http://www.w3.org/2000/svg" height="1026" style="width:1866px;height:1026px" viewBox="0 0 1866 1026" width="1866"><defs><filter height="300%" id="a" width="300%" x="-1" y="-1"><feGaussianBlur result="blurOut" stdDeviation="2"/><feColorMatrix in="blurOut" result="blurOut2" values="0 0 0 0 0 0 0 0 0 0 0 0 0 0 0 0 0 0 .4 0"/><feOffset dx="4" dy="4" in="blurOut2" result="blurOut3"/><feBlend in="SourceGraphic" in2="blurOut3"/></filter></defs><text font-family="sans-serif" font-size="18" lengthAdjust="spacingAndGlyphs" textLength="436" x="722" y="16.708">Setup as described in `docker-compose-dev.yml`</text><path d="M704 765.953c0-3 2-5 5-5s5 2 5 5c0-3 2-5 5-5s5 2 5 5c0-3 2-5 5-5s5 2 5 5c0-3 2-5 5-5s5 2 5 5c0-3 2-5 5-5s5 2 5 5c0-3 2-5 5-5s5 2 5 5c0-3 2-5 5-5s5 2 5 5c0-3 2-5 5-5s5 2 5 5c0-3 2-5 5-5s5 2 5 5c0-3 2-5 5-5s5 2 5 5c0-3 2-5 5-5s5 2 5 5c0-3 2-5 5-5s5 2 5 5c0-3 2-5 5-5s5 2 5 5c0-3 2-5 5-5s5 2 5 5c0-3 2-5 5-5s5 2 5 5c0-3 2-5 5-5s5 2 5 5c0-3 2-5 5-5s5 2 5 5c0-3 2-5 5-5s5 2 5 5c0-3 2-5 5-5s5 2 5 5c0-3 2-5 5-5s5 2 5 5c0-3 2-5 5-5s5 2 5 5c0-3 2-5 5-5s5 2 5 5c0-3 2-5 5-5s5 2 5 5c0-3 2-5 5-5s5 2 5 5c0-3 2-5 5-5s5 2 5 5c0-3 2-5 5-5s5 2 5 5c0-3 2-5 5-5s5 2 5 5c0-3 2-5 5-5s5 2 5 5c0-3 2-5 5-5s5 2 5 5c0-3 2-5 5-5s5 2 5 5c0-3 2-5 5-5s5 2 5 5c0-3 2-5 5-5s5 2 5 5c0-3 2-5 5-5s5 2 5 5c0-3 2-5 5-5s5 2 5 5c0-3 2-5 5-5s5 2 5 5c3 0 5 2 5 5s-2 5-5 5c3 0 5 2 5 5s-2 5-5 5c3 0 5 2 5 5s-2 5-5 5c3 0 5 2 5 5s-2 5-5 5c3 0 5 2 5 5s-2 5-5 5c3 0 5 2 5 5s-2 5-5 5c3 0 5 2 5 5s-2 5-5 5c3 0 5 2 5 5s-2 5-5 5c3 0 5 2 5 5s-2 5-5 5c3 0 5 2 5 5s-2 5-5 5c0 3-3 5-5 5-3 0-5-2-5-5 0 3-3 5-5 5-3 0-5-2-5-5 0 3-3 5-5 5-3 0-5-2-5-5 0 3-3 5-5 5-3 0-5-2-5-5 0 3-3 5-5 5-3 0-5-2-5-5 0 3-3 5-5 5-3 0-5-2-5-5 0 3-3 5-5 5-3 0-5-2-5-5 0 3-3 5-5 5-3 0-5-2-5-5 0 3-3 5-5 5-3 0-5-2-5-5 0 3-3 5-5 5-3 0-5-2-5-5 0 3-3 5-5 5-3 0-5-2-5-5 0 3-3 5-5 5-3 0-5-2-5-5 0 3-3 5-5 5-3 0-5-2-5-5 0 3-3 5-5 5-3 0-5-2-5-5 0 3-3 5-5 5-3 0-5-2-5-5 0 3-3 5-5 5-3 0-5-2-5-5 0 3-3 5-5 5-3 0-5-2-5-5 0 3-3 5-5 5-3 0-5-2-5-5 0 3-3 5-5 5-3 0-5-2-5-5 0 3-3 5-5 5-3 0-5-2-5-5 0 3-3 5-5 5-3 0-5-2-5-5 0 3-3 5-5 5-3 0-5-2-5-5 0 3-3 5-5 5-3 0-5-2-5-5 0 3-3 5-5 5-3 0-5-2-5-5 0 3-3 5-5 5-3 0-5-2-5-5 0 3-3 5-5 5-3 0-5-2-5-5 0 3-3 5-5 5-3 0-5-2-5-5 0 3-3 5-5 5-3 0-5-2-5-5 0 3-3 5-5 5-3 0-5-2-5-5 0 3-3 5-5 5-3 0-5-2-5-5 0 3-3 5-5 5-3 0-5-2-5-5 0 3-3 5-5 5-3 0-5-2-5-5 0 3-3 5-5 5-3 0-5-2-5-5 0 3-3 5-5 5-3 0-5-2-5-5 0 3-3 5-5 5-3 0-5-2-5-5-3 0-5-2-5-5s2-5 5-5c-3 0-5-2-5-5s2-5 5-5c-3 0-5-2-5-5s2-5 5-5c-3 0-5-2-5-5s2-5 5-5c-3 0-5-2-5-5s2-5 5-5c-3 0-5-2-5-5s2-5 5-5c-3 0-5-2-5-5s2-5 5-5c-3 0-5-2-5-5s2-5 5-5c-3 0-5-2-5-5s2-5 5-5c-3 0-5-2-5-5s2-5 5-5" fill="#FFF" filter="url(#a)" stroke="#000" stroke-width="2"/><text font-family="sans-serif" font-size="14" font-weight="bold" lengthAdjust="spacingAndGlyphs" textLength="101" x="827.5" y="784.948">host storage</text><path d="M1098 765.953c0-3 2-5 5-5s5 2 5 5c0-3 2-5 5-5s5 2 5 5c0-3 2-5 5-5s5 2 5 5c0-3 2-5 5-5s5 2 5 5c0-3 2-5 5-5s5 2 5 5c0-3 2-5 5-5s5 2 5 5c0-3 2-5 5-5s5 2 5 5c0-3 2-5 5-5s5 2 5 5c0-3 2-5 5-5s5 2 5 5c0-3 2-5 5-5s5 2 5 5c0-3 2-5 5-5s5 2 5 5c0-3 2-5 5-5s5 2 5 5c0-3 2-5 5-5s5 2 5 5c0-3 2-5 5-5s5 2 5 5c0-3 2-5 5-5s5 2 5 5c0-3 2-5 5-5s5 2 5 5c0-3 2-5 5-5s5 2 5 5c0-3 2-5 5-5s5 2 5 5c0-3 2-5 5-5s5 2 5 5c0-3 2-5 5-5s5 2 5 5c0-3 2-5 5-5s5 2 5 5c0-3 2-5 5-5s5 2 5 5c0-3 2-5 5-5s5 2 5 5c0-3 2-5 5-5s5 2 5 5c0-3 2-5 5-5s5 2 5 5c0-3 2-5 5-5s5 2 5 5c0-3 2-5 5-5s5 2 5 5c0-3 2-5 5-5s5 2 5 5c0-3 2-5 5-5s5 2 5 5c0-3 2-5 5-5s5 2 5 5c0-3 2-5 5-5s5 2 5 5c0-3 2-5 5-5s5 2 5 5c0-3 2-5 5-5s5 2 5 5c0-3 2-5 5-5s5 2 5 5c0-3 2-5 5-5s5 2 5 5c0-3 2-5 5-5s5 2 5 5c0-3 2-5 5-5s5 2 5 5c0-3 2-5 5-5s5 2 5 5c0-3 2-5 5-5s5 2 5 5c0-3 2-5 5-5s5 2 5 5c0-3 2-5 5-5s5 2 5 5c0-3 2-5 5-5s5 2 5 5c0-3 2-5 5-5s5 2 5 5c0-3 2-5 5-5s5 2 5 5c0-3 2-5 5-5s5 2 5 5c0-3 2-5 5-5s5 2 5 5c0-3 2-5 5-5s5 2 5 5c0-3 2-5 5-5s5 2 5 5c0-3 2-5 5-5s5 2 5 5c0-3 2-5 5-5s5 2 5 5c0-3 2-5 5-5s5 2 5 5c0-3 2-5 5-5s5 2 5 5c0-3 2-5 5-5s5 2 5 5c0-3 2-5 5-5s5 2 5 5c0-3 2-5 5-5s5 2 5 5c0-3 2-5 5-5s5 2 5 5c0-3 2-5 5-5s5 2 5 5c3 0 5 2 5 5s-2 5-5 5c3 0 5 2 5 5s-2 5-5 5c3 0 5 2 5 5s-2 5-5 5c3 0 5 2 5 5s-2 5-5 5c3 0 5 2 5 5s-2 5-5 5c3 0 5 2 5 5s-2 5-5 5c3 0 5 2 5 5s-2 5-5 5c3 0 5 2 5 5s-2 5-5 5c3 0 5 2 5 5s-2 5-5 5c3 0 5 2 5 5s-2 5-5 5c0 3-3 5-5 5-3 0-5-2-5-5 0 3-3 5-5 5-3 0-5-2-5-5 0 3-3 5-5 5-3 0-5-2-5-5 0 3-3 5-5 5-3 0-5-2-5-5 0 3-3 5-5 5-3 0-5-2-5-5 0 3-3 5-5 5-3 0-5-2-5-5 0 3-3 5-5 5-3 0-5-2-5-5 0 3-3 5-5 5-3 0-5-2-5-5 0 3-3 5-5 5-3 0-5-2-5-5 0 3-3 5-5 5-3 0-5-2-5-5 0 3-3 5-5 5-3 0-5-2-5-5 0 3-3 5-5 5-3 0-5-2-5-5 0 3-3 5-5 5-3 0-5-2-5-5 0 3-3 5-5 5-3 0-5-2-5-5 0 3-3 5-5 5-3 0-5-2-5-5 0 3-3 5-5 5-3 0-5-2-5-5 0 3-3 5-5 5-3 0-5-2-5-5 0 3-3 5-5 5-3 0-5-2-5-5 0 3-3 5-5 5-3 0-5-2-5-5 0 3-3 5-5 5-3 0-5-2-5-5 0 3-3 5-5 5-3 0-5-2-5-5 0 3-3 5-5 5-3 0-5-2-5-5 0 3-3 5-5 5-3 0-5-2-5-5 0 3-3 5-5 5-3 0-5-2-5-5 0 3-3 5-5 5-3 0-5-2-5-5 0 3-3 5-5 5-3 0-5-2-5-5 0 3-3 5-5 5-3 0-5-2-5-5 0 3-3 5-5 5-3 0-5-2-5-5 0 3-3 5-5 5-3 0-5-2-5-5 0 3-3 5-5 5-3 0-5-2-5-5 0 3-3 5-5 5-3 0-5-2-5-5 0 3-3 5-5 5-3 0-5-2-5-5 0 3-3 5-5 5-3 0-5-2-5-5 0 3-3 5-5 5-3 0-5-2-5-5 0 3-3 5-5 5-3 0-5-2-5-5 0 3-3 5-5 5-3 0-5-2-5-5 0 3-3 5-5 5-3 0-5-2-5-5 0 3-3 5-5 5-3 0-5-2-5-5 0 3-3 5-5 5-3 0-5-2-5-5 0 3-3 5-5 5-3 0-5-2-5-5 0 3-3 5-5 5-3 0-5-2-5-5 0 3-3 5-5 5-3 0-5-2-5-5 0 3-3 5-5 5-3 0-5-2-5-5 0 3-3 5-5 5-3 0-5-2-5-5 0 3-3 5-5 5-3 0-5-2-5-5 0 3-3 5-5 5-3 0-5-2-5-5 0 3-3 5-5 5-3 0-5-2-5-5 0 3-3 5-5 5-3 0-5-2-5-5 0 3-3 5-5 5-3 0-5-2-5-5 0 3-3 5-5 5-3 0-5-2-5-5 0 3-3 5-5 5-3 0-5-2-5-5 0 3-3 5-5 5-3 0-5-2-5-5 0 3-3 5-5 5-3 0-5-2-5-5 0 3-3 5-5 5-3 0-5-2-5-5 0 3-3 5-5 5-3 0-5-2-5-5 0 3-3 5-5 5-3 0-5-2-5-5 0 3-3 5-5 5-3 0-5-2-5-5-3 0-5-2-5-5s2-5 5-5c-3 0-5-2-5-5s2-5 5-5c-3 0-5-2-5-5s2-5 5-5c-3 0-5-2-5-5s2-5 5-5c-3 0-5-2-5-5s2-5 5-5c-3 0-5-2-5-5s2-5 5-5c-3 0-5-2-5-5s2-5 5-5c-3 0-5-2-5-5s2-5 5-5c-3 0-5-2-5-5s2-5 5-5c-3 0-5-2-5-5s2-5 5-5" fill="#FFF" filter="url(#a)" stroke="#000" stroke-width="2"/><text font-family="sans-serif" font-size="14" font-weight="bold" lengthAdjust="spacingAndGlyphs" textLength="121" x="1321" y="784.948">shared storage</text><path fill="#FFF" filter="url(#a)" stroke="#000" stroke-width="2" d="M1473 386.953l10-10h127v99l-10 10h-127v-99z"/><path stroke="#000" stroke-width="2" d="M1600 386.953l9-9M1473 386.953h127M1600 386.953v99"/><text font-family="sans-serif" font-size="14" font-weight="bold" lengthAdjust="spacingAndGlyphs" textLength="46" x="1514.5" y="402.948">mysql</text><path fill="#FFF" filter="url(#a)" stroke="#000" stroke-width="2" d="M788 386.953l10-10h139v99l-10 10H788v-99z"/><path stroke="#000" stroke-width="2" d="M927 386.953l9-9M788 386.953h139M927 386.953v99"/><text font-family="sans-serif" font-size="14" font-weight="bold" lengthAdjust="spacingAndGlyphs" textLength="46" x="835.5" y="402.948">rabbit</text><path fill="#FFF" filter="url(#a)" stroke="#000" stroke-width="2" d="M977 386.953l10-10h159v99l-10 10H977v-99z"/><path stroke="#000" stroke-width="2" d="M1136 386.953l9-9M977 386.953h159M1136 386.953v99"/><text font-family="sans-serif" font-size="14" font-weight="bold" lengthAdjust="spacingAndGlyphs" textLength="40" x="1037.5" y="402.948">redis</text><path fill="#FFF" filter="url(#a)" stroke="#000" stroke-width="2" d="M759 577.953l10-10h253v99l-10 10H759v-99z"/><path stroke="#000" stroke-width="2" d="M1012 577.953l9-9M759 577.953h253M1012 577.953v99"/><text font-family="sans-serif" font-size="14" font-weight="bold" lengthAdjust="spacingAndGlyphs" textLength="34" x="869.5" y="593.948">web</text><path fill="#FFF" filter="url(#a)" stroke="#000" stroke-width="2" d="M1062 577.953l10-10h169v99l-10 10h-169v-99z"/><path stroke="#000" stroke-width="2" d="M1231 577.953l9-9M1062 577.953h169M1231 577.953v99"/><text font-family="sans-serif" font-size="14" font-weight="bold" lengthAdjust="spacingAndGlyphs" textLength="57" x="1119" y="593.948">worker</text><path d="M1695.75 812.953c0-3 2-5 5-5s5 2 5 5c0-3 2-5 5-5s5 2 5 5c0-3 2-5 5-5s5 2 5 5c0-3 2-5 5-5s5 2 5 5c0-3 2-5 5-5s5 2 5 5c0-3 2-5 5-5s5 2 5 5c0-3 2-5 5-5s5 2 5 5c0-3 2-5 5-5s5 2 5 5c0-3 2-5 5-5s5 2 5 5c0-3 2-5 5-5s5 2 5 5c0-3 2-5 5-5s5 2 5 5c3 0 5 2 5 5s-2 5-5 5c3 0 5 2 5 5s-2 5-5 5c0 3-3 5-5 5-3 0-5-2-5-5 0 3-3 5-5 5-3 0-5-2-5-5 0 3-3 5-5 5-3 0-5-2-5-5 0 3-3 5-5 5-3 0-5-2-5-5 0 3-3 5-5 5-3 0-5-2-5-5 0 3-3 5-5 5-3 0-5-2-5-5 0 3-3 5-5 5-3 0-5-2-5-5 0 3-3 5-5 5-3 0-5-2-5-5 0 3-3 5-5 5-3 0-5-2-5-5 0 3-3 5-5 5-3 0-5-2-5-5 0 3-3 5-5 5-3 0-5-2-5-5-3 0-5-2-5-5s2-5 5-5c-3 0-5-2-5-5s2-5 5-5" fill="#FFF" filter="url(#a)" stroke="#000" stroke-width="1.5"/><text font-family="sans-serif" font-size="14" lengthAdjust="spacingAndGlyphs" textLength="99" x="1702.75" y="828.948">public internet</text><path d="M967.75 813.453c0-10 31.5-10 31.5-10s31.5 0 31.5 10v21.297c0 10-31.5 10-31.5 10s-31.5 0-31.5-10v-21.297" fill="#0FF" filter="url(#a)" stroke="#000" stroke-width="1.5"/><path d="M967.75 813.453c0 10 31.5 10 31.5 10s31.5 0 31.5-10" fill="none" stroke="#000" stroke-width="1.5"/><text font-family="sans-serif" font-size="14" lengthAdjust="spacingAndGlyphs" textLength="43" x="977.75" y="836.448">./docs</text><path d="M744 813.453c0-10 39-10 39-10s39 0 39 10v21.297c0 10-39 10-39 10s-39 0-39-10v-21.297" fill="gray" filter="url(#a)" stroke="#000" stroke-width="1.5"/><path d="M744 813.453c0 10 39 10 39 10s39 0 39-10" fill="none" stroke="#000" stroke-width="1.5"/><text font-family="sans-serif" font-size="14" lengthAdjust="spacingAndGlyphs" textLength="58" x="754" y="836.448">./invenio</text><path d="M857.75 813.453c0-10 37.5-10 37.5-10s37.5 0 37.5 10v21.297c0 10-37.5 10-37.5 10s-37.5 0-37.5-10v-21.297" fill="gray" filter="url(#a)" stroke="#000" stroke-width="1.5"/><path d="M857.75 813.453c0 10 37.5 10 37.5 10s37.5 0 37.5-10" fill="none" stroke="#000" stroke-width="1.5"/><text font-family="sans-serif" font-size="14" lengthAdjust="spacingAndGlyphs" textLength="55" x="867.75" y="836.448">./scripts</text><path d="M1524.75 813.453c0-10 59.5-10 59.5-10s59.5 0 59.5 10v21.297c0 10-59.5 10-59.5 10s-59.5 0-59.5-10v-21.297" fill="#FFF" filter="url(#a)" stroke="#000" stroke-width="1.5"/><path d="M1524.75 813.453c0 10 59.5 10 59.5 10s59.5 0 59.5-10" fill="none" stroke="#000" stroke-width="1.5"/><text font-family="sans-serif" font-size="14" lengthAdjust="spacingAndGlyphs" textLength="99" x="1534.75" y="836.448">/home/invenio</text><path d="M1225 813.453c0-10 132-10 132-10s132 0 132 10v21.297c0 10-132 10-132 10s-132 0-132-10v-21.297" fill="#FFF" filter="url(#a)" stroke="#000" stroke-width="1.5"/><path d="M1225 813.453c0 10 132 10 132 10s132 0 132-10" fill="none" stroke="#000" stroke-width="1.5"/><text font-family="sans-serif" font-size="14" lengthAdjust="spacingAndGlyphs" textLength="244" x="1235" y="836.448">/usr/local/var/invenio.base-instance</text><path d="M1138 813.453c0-10 26-10 26-10s26 0 26 10v21.297c0 10-26 10-26 10s-26 0-26-10v-21.297" fill="#FFF" filter="url(#a)" stroke="#000" stroke-width="1.5"/><path d="M1138 813.453c0 10 26 10 26 10s26 0 26-10" fill="none" stroke="#000" stroke-width="1.5"/><text font-family="sans-serif" font-size="14" lengthAdjust="spacingAndGlyphs" textLength="32" x="1148" y="836.448">/tmp</text><path fill="gray" filter="url(#a)" stroke="#000" stroke-width="1.5" d="M1738.75 234.953l10-10h113v36.297l-10 10h-113v-36.297z"/><path stroke="#000" stroke-width="1.5" d="M1851.75 234.953l9-9M1738.75 234.953h113M1851.75 234.953v36.297"/><text font-family="sans-serif" font-size="14" lengthAdjust="spacingAndGlyphs" textLength="83" x="1753.75" y="257.948">mysql:latest</text><path fill="gray" filter="url(#a)" stroke="#000" stroke-width="1.5" d="M544 234.953l10-10h202v36.297l-10 10H544v-36.297z"/><path stroke="#000" stroke-width="1.5" d="M746 234.953l9-9M544 234.953h202M746 234.953v36.297"/><text font-family="sans-serif" font-size="14" lengthAdjust="spacingAndGlyphs" textLength="172" x="559" y="257.948">rabbitmq:3-management</text><path fill="gray" filter="url(#a)" stroke="#000" stroke-width="1.5" d="M791.75 234.953l10-10h107v36.297l-10 10h-107v-36.297z"/><path stroke="#000" stroke-width="1.5" d="M898.75 234.953l9-9M791.75 234.953h107M898.75 234.953v36.297"/><text font-family="sans-serif" font-size="14" lengthAdjust="spacingAndGlyphs" textLength="77" x="806.75" y="257.948">redis:latest</text><path fill="gray" filter="url(#a)" stroke="#000" stroke-width="1.5" d="M1355.75 38.953l10-10h137V65.25l-10 10h-137V38.953z"/><path stroke="#000" stroke-width="1.5" d="M1492.75 38.953l9-9M1355.75 38.953h137M1492.75 38.953V75.25"/><text font-family="sans-serif" font-size="14" lengthAdjust="spacingAndGlyphs" textLength="107" x="1370.75" y="61.948">python:2.7-slim</text><path fill="gray" filter="url(#a)" stroke="#000" stroke-width="1.5" d="M1363 234.953l10-10h122v36.297l-10 10h-122v-36.297z"/><path stroke="#000" stroke-width="1.5" d="M1485 234.953l9-9M1363 234.953h122M1485 234.953v36.297"/><text font-family="sans-serif" font-size="14" lengthAdjust="spacingAndGlyphs" textLength="92" x="1378" y="257.948">invenio:latest</text><path fill="gray" filter="url(#a)" stroke="#000" stroke-width="1.5" d="M1170.75 430.953l10-10h177v36.297l-10 10h-177v-36.297z"/><path stroke="#000" stroke-width="1.5" d="M1347.75 430.953l9-9M1170.75 430.953h177M1347.75 430.953v36.297"/><text font-family="sans-serif" font-size="14" lengthAdjust="spacingAndGlyphs" textLength="147" x="1185.75" y="453.948">invenio_overlay:latest</text><path fill="#FEFECE" filter="url(#a)" stroke="#000" stroke-width="1.5" d="M1516.75 425.953h69v36.297h-69z"/><path fill="#FEFECE" stroke="#000" stroke-width="1.5" d="M1511.75 430.953h10v5h-10zM1511.75 452.25h10v5h-10z"/><text font-family="sans-serif" font-size="14" lengthAdjust="spacingAndGlyphs" textLength="49" x="1526.75" y="448.948">mysqld</text><path fill="#FEFECE" filter="url(#a)" stroke="#000" stroke-width="1.5" d="M831.75 425.953h81v36.297h-81z"/><path fill="#FEFECE" stroke="#000" stroke-width="1.5" d="M826.75 430.953h10v5h-10zM826.75 452.25h10v5h-10z"/><text font-family="sans-serif" font-size="14" lengthAdjust="spacingAndGlyphs" textLength="61" x="841.75" y="448.948">rabbitmq</text><path fill="#FEFECE" filter="url(#a)" stroke="#000" stroke-width="1.5" d="M1020 425.953h102v36.297h-102z"/><path fill="#FEFECE" stroke="#000" stroke-width="1.5" d="M1015 430.953h10v5h-10zM1015 452.25h10v5h-10z"/><text font-family="sans-serif" font-size="14" lengthAdjust="spacingAndGlyphs" textLength="82" x="1030" y="448.948">redis-server</text><path fill="#FEFECE" filter="url(#a)" stroke="#000" stroke-width="1.5" d="M802.75 616.953h195v36.297h-195z"/><path fill="#FEFECE" stroke="#000" stroke-width="1.5" d="M797.75 621.953h10v5h-10zM797.75 643.25h10v5h-10z"/><text font-family="sans-serif" font-size="14" lengthAdjust="spacingAndGlyphs" textLength="175" x="812.75" y="639.948">inveniomanage runserver</text><path fill="#FEFECE" filter="url(#a)" stroke="#000" stroke-width="1.5" d="M1086 616.953h112v36.297h-112z"/><path fill="#FEFECE" stroke="#000" stroke-width="1.5" d="M1081 621.953h10v5h-10zM1081 643.25h10v5h-10z"/><text font-family="sans-serif" font-size="14" lengthAdjust="spacingAndGlyphs" textLength="92" x="1096" y="639.948">celery worker</text><ellipse cx="685" cy="435.953" fill="#FEFECE" filter="url(#a)" rx="8" ry="8" stroke="#A80036" stroke-width="2"/><text font-family="sans-serif" font-size="14" lengthAdjust="spacingAndGlyphs" textLength="152" x="609" y="457.948">TTY via `docker exec`</text><ellipse cx="463" cy="435.953" fill="#FEFECE" filter="url(#a)" rx="8" ry="8" stroke="#A80036" stroke-width="2"/><text font-family="sans-serif" font-size="14" lengthAdjust="spacingAndGlyphs" textLength="222" x="352" y="457.948">webinterface at localhost:28080</text><ellipse cx="999.25" cy="1003.953" fill="#FEFECE" filter="url(#a)" rx="8" ry="8" stroke="#A80036" stroke-width="2"/><text font-family="sans-serif" font-size="14" lengthAdjust="spacingAndGlyphs" textLength="89" x="954.75" y="1025.948">builded docs</text><ellipse cx="797.25" cy="1003.953" fill="#FEFECE" filter="url(#a)" rx="8" ry="8" stroke="#A80036" stroke-width="2"/><text font-family="sans-serif" font-size="14" lengthAdjust="spacingAndGlyphs" textLength="217" x="688.75" y="1025.948">live code and template updates</text><ellipse cx="1617.25" cy="239.953" fill="#FEFECE" filter="url(#a)" rx="8" ry="8" stroke="#A80036" stroke-width="2"/><text font-family="sans-serif" font-size="14" lengthAdjust="spacingAndGlyphs" textLength="173" x="1530.75" y="261.948">mysql at localhost:23306</text><ellipse cx="103" cy="239.953" fill="#FEFECE" filter="url(#a)" rx="8" ry="8" stroke="#A80036" stroke-width="2"/><text font-family="sans-serif" font-size="14" lengthAdjust="spacingAndGlyphs" textLength="194" x="6" y="261.948">rabbitmq at localhost:25672</text><ellipse cx="372.25" cy="239.953" fill="#FEFECE" filter="url(#a)" rx="8" ry="8" stroke="#A80036" stroke-width="2"/><text font-family="sans-serif" font-size="14" lengthAdjust="spacingAndGlyphs" textLength="273" x="235.75" y="261.948">rabbitmq web admin at localhost:25673</text><ellipse cx="1136" cy="239.953" fill="#FEFECE" filter="url(#a)" rx="8" ry="8" stroke="#A80036" stroke-width="2"/><text font-family="sans-serif" font-size="14" lengthAdjust="spacingAndGlyphs" textLength="384" x="944" y="261.948">redis + celery debug (e.g. via flower) at localhost:26379</text><path d="M1719.61 274.604c-83.6 27.356-204.44 69.072-219.61 86.35-4.2 4.786-7.53 10.32-10.15 16.21M1717.48 267.936l21.18.47-16.85 12.844-4.33-13.314zM690.257 273.922c28.846 20.01 66.255 50.693 87.743 87.03 4.312 7.293 7.594 15.5 10.09 23.833" fill="none" stroke="#000"/><path stroke="#000" d="M686.067 271.048l5.158 8.39-1.035-5.56 5.56-1.037-9.683-1.792z"/><path d="M877.565 287.726c15.243 21.517 34.475 48.792 51.435 73.227 17.52 25.244 37.793 55.09 48.49 70.89M871.7 291.558l-5.862-20.362 17.282 12.26-11.42 8.102zM1429 95.437V224.66M1422 95.207l7-20 7 20h-14zM1397.03 286.546c-33.87 39.82-86.21 101.362-114.07 134.114M1391.78 281.907l18.29-10.7-7.62 19.77-10.67-9.07zM1205.08 475.782c-20.73 9.71-44.49 19.602-67.08 26.17-75.87 22.06-293.768-3.395-352 50-5.008 4.593-8.824 10.223-11.715 16.36M1202.08 469.453l21.05-2.435-14.93 15.03-6.12-12.595zM1257.1 487.022c-4.77 29.063-11.12 67.806-16.11 98.21M1250.24 485.607l10.14-18.603 3.67 20.87-13.81-2.267zM759.224 655.177c-8.412 21.244-21.87 56.586-31.224 87.776-1.1 3.667-2.178 7.444-3.226 11.268" fill="none" stroke="#000"/><path stroke="#000" d="M723.462 759.084l6.205-7.648-4.903 2.82-2.82-4.903 1.518 9.73z"/><path d="M1226 676.46c-2.78 6.334-6.64 12.195-12 16.493-169.42 135.823-322.763-93.19-486 50-3.846 3.373-6.987 7.37-9.546 11.75" fill="none" stroke="#000"/><path stroke="#000" d="M716.085 759.2l7.733-6.1-5.403 1.675-1.675-5.403-.655 9.827z"/><path d="M774.563 676.644c2.723 6.16 6.42 11.916 11.437 16.31 88.86 77.804 161.863-14.2 261 50 21.45 13.887 37.05 39.148 46.26 57.58" fill="none" stroke="#000"/><path stroke="#000" d="M1095.46 805.06l-.337-9.843-1.85 5.346-5.345-1.85 7.532 6.347z"/><path d="M1223.72 676.572c-2.52 5.892-5.7 11.578-9.72 16.38-29.89 35.674-63.72 13.04-92 50-2.76 3.608-5.13 7.554-7.16 11.7" fill="none" stroke="#000"/><path stroke="#000" d="M1112.77 759.22l7.36-6.546-5.296 1.992-1.992-5.295-.072 9.85z"/><path d="M1541.63 467.01c-6.46 12.384-16.3 26.92-29.63 34.943-169.39 101.93-252.06-4.832-442 50-52.73 15.223-109.238 45.63-142.003 64.834" fill="none" stroke="#000" stroke-dasharray="7.0,7.0"/><path stroke="#000" d="M1544.02 462.21l-7.6 6.266 5.366-1.792 1.792 5.366.442-9.84z"/><path d="M875.326 467.406L897.45 616.75" fill="none" stroke="#000" stroke-dasharray="7.0,7.0"/><path stroke="#000" d="M874.534 462.06l-2.638 9.488 3.37-4.543 4.544 3.37-5.276-8.316z"/><path d="M1051.94 466.014L915.565 616.75" fill="none" stroke="#000" stroke-dasharray="7.0,7.0"/><path stroke="#000" d="M1055.52 462.06l-9.002 3.996 5.65-.287.287 5.65 3.065-9.36z"/><path d="M1541.49 466.78c-6.51 12.305-16.35 26.837-29.49 35.173-117.84 74.76-190.99-22.887-310 50-25.12 15.386-43 45.593-52.4 64.737" fill="none" stroke="#000" stroke-dasharray="7.0,7.0"/><path stroke="#000" d="M1543.9 462.02l-7.64 6.215 5.378-1.757 1.757 5.377.505-9.836z"/><path d="M900.79 465.106l216.63 151.644" fill="none" stroke="#000" stroke-dasharray="7.0,7.0"/><path stroke="#000" d="M896.437 462.06l5.08 8.437-.984-5.57 5.57-.983-9.666-1.885z"/><path d="M1079.26 466.938c14.29 38.044 43.34 115.38 56.28 149.812" fill="none" stroke="#000" stroke-dasharray="7.0,7.0"/><path stroke="#000" d="M1077.43 462.06l-.573 9.83 2.335-5.15 5.152 2.333-6.914-7.014z"/><path d="M488.92 461.067c65.016 40.422 232.536 144.57 270.397 168.11M691.99 461.067l67.295 155.105" fill="none" stroke="#000" stroke-dasharray="7.0,7.0"/><path d="M999 849.97v139.656" fill="none" stroke="#000"/><path stroke="#000" d="M999 994.88l4-9-4 4-4-4 4 9zM999 844.507l-4 9 4-4 4 4-4-9z"/><path d="M784.847 849.496c2.912 38.683 8.49 112.78 10.943 145.385" fill="none" stroke="#000"/><path stroke="#000" d="M784.472 844.507l-3.312 9.275 3.688-4.29 4.29 3.69-4.666-8.675z"/><path d="M882.317 849.024c-20.31 38.55-59.6 113.12-76.85 145.857" fill="none" stroke="#000"/><path stroke="#000" d="M884.698 844.507l-7.734 6.098 5.404-1.674 1.674 5.404.656-9.827z"/><path d="M1593.31 265.004c-26.86 19.49-69.94 54.894-93.31 95.95-2.87 5.043-5.31 10.496-7.38 16.11M1107.88 265.124c-30.41 18.99-77.99 53.358-103.88 95.83-3.095 5.076-5.686 10.61-7.855 16.33M185.238 264.992c11.005 2.057 22.152 4.094 32.762 5.96 124.134 21.845 468.383 3.44 560 90 4.926 4.655 8.657 10.325 11.464 16.486" fill="none" stroke="#000" stroke-dasharray="7.0,7.0"/><path d="M475.148 265.01C581.252 283.614 736.68 317.38 778 360.952c4.47 4.713 7.928 10.27 10.592 16.234M773.843 676.663c2.793 6.314 6.7 12.115 12.157 16.29 154.505 118.212 693.81-23.322 874 50 30.62 12.46 58.12 39.495 74.91 58.682" fill="none" stroke="#000" stroke-dasharray="7.0,7.0"/><path stroke="#000" d="M1738.54 805.844l-2.846-9.43-.418 5.643-5.642-.42 8.906 4.207z"/><path d="M1240.96 636.563c44.25 3.665 263.73 25.406 419.04 106.39 28.79 15.012 56.11 40.758 73.39 58.983" fill="none" stroke="#000" stroke-dasharray="7.0,7.0"/><path stroke="#000" d="M1737.13 805.935l-3.222-9.307-.192 5.654-5.653-.192 9.067 3.845z"/></svg>