<svg xmlns="http://www.w3.org/2000/svg" height="1026" style="width:2342px;height:1026px" viewBox="0 0 2342 1026" width="2342"><defs><filter height="300%" id="a" width="300%" x="-1" y="-1"><feGaussianBlur result="blurOut" stdDeviation="2"/><feColorMatrix in="blurOut" result="blurOut2" values="0 0 0 0 0 0 0 0 0 0 0 0 0 0 0 0 0 0 .4 0"/><feOffset dx="4" dy="4" in="blurOut2" result="blurOut3"/><feBlend in="SourceGraphic" in2="blurOut3"/></filter></defs><text font-family="sans-serif" font-size="18" lengthAdjust="spacingAndGlyphs" textLength="436" x="959.75" y="16.708">Setup as described in `docker-compose-dev.yml`</text><path d="M709.25 765.953c0-3 2-5 5-5s5 2 5 5c0-3 2-5 5-5s5 2 5 5c0-3 2-5 5-5s5 2 5 5c0-3 2-5 5-5s5 2 5 5c0-3 2-5 5-5s5 2 5 5c0-3 2-5 5-5s5 2 5 5c0-3 2-5 5-5s5 2 5 5c0-3 2-5 5-5s5 2 5 5c0-3 2-5 5-5s5 2 5 5c0-3 2-5 5-5s5 2 5 5c0-3 2-5 5-5s5 2 5 5c0-3 2-5 5-5s5 2 5 5c0-3 2-5 5-5s5 2 5 5c0-3 2-5 5-5s5 2 5 5c0-3 2-5 5-5s5 2 5 5c0-3 2-5 5-5s5 2 5 5c0-3 2-5 5-5s5 2 5 5c0-3 2-5 5-5s5 2 5 5c0-3 2-5 5-5s5 2 5 5c0-3 2-5 5-5s5 2 5 5c0-3 2-5 5-5s5 2 5 5c0-3 2-5 5-5s5 2 5 5c0-3 2-5 5-5s5 2 5 5c0-3 2-5 5-5s5 2 5 5c0-3 2-5 5-5s5 2 5 5c0-3 2-5 5-5s5 2 5 5c0-3 2-5 5-5s5 2 5 5c0-3 2-5 5-5s5 2 5 5c0-3 2-5 5-5s5 2 5 5c0-3 2-5 5-5s5 2 5 5c0-3 2-5 5-5s5 2 5 5c0-3 2-5 5-5s5 2 5 5c0-3 2-5 5-5s5 2 5 5c0-3 2-5 5-5s5 2 5 5c0-3 2-5 5-5s5 2 5 5c3 0 5 2 5 5s-2 5-5 5c3 0 5 2 5 5s-2 5-5 5c3 0 5 2 5 5s-2 5-5 5c3 0 5 2 5 5s-2 5-5 5c3 0 5 2 5 5s-2 5-5 5c3 0 5 2 5 5s-2 5-5 5c3 0 5 2 5 5s-2 5-5 5c3 0 5 2 5 5s-2 5-5 5c3 0 5 2 5 5s-2 5-5 5c3 0 5 2 5 5s-2 5-5 5c0 3-3 5-5 5-3 0-5-2-5-5 0 3-3 5-5 5-3 0-5-2-5-5 0 3-3 5-5 5-3 0-5-2-5-5 0 3-3 5-5 5-3 0-5-2-5-5 0 3-3 5-5 5-3 0-5-2-5-5 0 3-3 5-5 5-3 0-5-2-5-5 0 3-3 5-5 5-3 0-5-2-5-5 0 3-3 5-5 5-3 0-5-2-5-5 0 3-3 5-5 5-3 0-5-2-5-5 0 3-3 5-5 5-3 0-5-2-5-5 0 3-3 5-5 5-3 0-5-2-5-5 0 3-3 5-5 5-3 0-5-2-5-5 0 3-3 5-5 5-3 0-5-2-5-5 0 3-3 5-5 5-3 0-5-2-5-5 0 3-3 5-5 5-3 0-5-2-5-5 0 3-3 5-5 5-3 0-5-2-5-5 0 3-3 5-5 5-3 0-5-2-5-5 0 3-3 5-5 5-3 0-5-2-5-5 0 3-3 5-5 5-3 0-5-2-5-5 0 3-3 5-5 5-3 0-5-2-5-5 0 3-3 5-5 5-3 0-5-2-5-5 0 3-3 5-5 5-3 0-5-2-5-5 0 3-3 5-5 5-3 0-5-2-5-5 0 3-3 5-5 5-3 0-5-2-5-5 0 3-3 5-5 5-3 0-5-2-5-5 0 3-3 5-5 5-3 0-5-2-5-5 0 3-3 5-5 5-3 0-5-2-5-5 0 3-3 5-5 5-3 0-5-2-5-5 0 3-3 5-5 5-3 0-5-2-5-5 0 3-3 5-5 5-3 0-5-2-5-5 0 3-3 5-5 5-3 0-5-2-5-5 0 3-3 5-5 5-3 0-5-2-5-5 0 3-3 5-5 5-3 0-5-2-5-5 0 3-3 5-5 5-3 0-5-2-5-5 0 3-3 5-5 5-3 0-5-2-5-5-3 0-5-2-5-5s2-5 5-5c-3 0-5-2-5-5s2-5 5-5c-3 0-5-2-5-5s2-5 5-5c-3 0-5-2-5-5s2-5 5-5c-3 0-5-2-5-5s2-5 5-5c-3 0-5-2-5-5s2-5 5-5c-3 0-5-2-5-5s2-5 5-5c-3 0-5-2-5-5s2-5 5-5c-3 0-5-2-5-5s2-5 5-5c-3 0-5-2-5-5s2-5 5-5" fill="#FFF" filter="url(#a)" stroke="#000" stroke-width="2"/><text font-family="sans-serif" font-size="14" font-weight="bold" lengthAdjust="spacingAndGlyphs" textLength="101" x="832.75" y="784.948">host storage</text><path d="M1103.25 765.953c0-3 2-5 5-5s5 2 5 5c0-3 2-5 5-5s5 2 5 5c0-3 2-5 5-5s5 2 5 5c0-3 2-5 5-5s5 2 5 5c0-3 2-5 5-5s5 2 5 5c0-3 2-5 5-5s5 2 5 5c0-3 2-5 5-5s5 2 5 5c0-3 2-5 5-5s5 2 5 5c0-3 2-5 5-5s5 2 5 5c0-3 2-5 5-5s5 2 5 5c0-3 2-5 5-5s5 2 5 5c0-3 2-5 5-5s5 2 5 5c0-3 2-5 5-5s5 2 5 5c0-3 2-5 5-5s5 2 5 5c0-3 2-5 5-5s5 2 5 5c0-3 2-5 5-5s5 2 5 5c0-3 2-5 5-5s5 2 5 5c0-3 2-5 5-5s5 2 5 5c0-3 2-5 5-5s5 2 5 5c0-3 2-5 5-5s5 2 5 5c0-3 2-5 5-5s5 2 5 5c0-3 2-5 5-5s5 2 5 5c0-3 2-5 5-5s5 2 5 5c0-3 2-5 5-5s5 2 5 5c0-3 2-5 5-5s5 2 5 5c0-3 2-5 5-5s5 2 5 5c0-3 2-5 5-5s5 2 5 5c0-3 2-5 5-5s5 2 5 5c0-3 2-5 5-5s5 2 5 5c0-3 2-5 5-5s5 2 5 5c0-3 2-5 5-5s5 2 5 5c0-3 2-5 5-5s5 2 5 5c0-3 2-5 5-5s5 2 5 5c0-3 2-5 5-5s5 2 5 5c0-3 2-5 5-5s5 2 5 5c0-3 2-5 5-5s5 2 5 5c0-3 2-5 5-5s5 2 5 5c0-3 2-5 5-5s5 2 5 5c0-3 2-5 5-5s5 2 5 5c0-3 2-5 5-5s5 2 5 5c0-3 2-5 5-5s5 2 5 5c0-3 2-5 5-5s5 2 5 5c0-3 2-5 5-5s5 2 5 5c0-3 2-5 5-5s5 2 5 5c0-3 2-5 5-5s5 2 5 5c0-3 2-5 5-5s5 2 5 5c0-3 2-5 5-5s5 2 5 5c0-3 2-5 5-5s5 2 5 5c0-3 2-5 5-5s5 2 5 5c0-3 2-5 5-5s5 2 5 5c0-3 2-5 5-5s5 2 5 5c0-3 2-5 5-5s5 2 5 5c0-3 2-5 5-5s5 2 5 5c0-3 2-5 5-5s5 2 5 5c0-3 2-5 5-5s5 2 5 5c0-3 2-5 5-5s5 2 5 5c0-3 2-5 5-5s5 2 5 5c3 0 5 2 5 5s-2 5-5 5c3 0 5 2 5 5s-2 5-5 5c3 0 5 2 5 5s-2 5-5 5c3 0 5 2 5 5s-2 5-5 5c3 0 5 2 5 5s-2 5-5 5c3 0 5 2 5 5s-2 5-5 5c3 0 5 2 5 5s-2 5-5 5c3 0 5 2 5 5s-2 5-5 5c3 0 5 2 5 5s-2 5-5 5c3 0 5 2 5 5s-2 5-5 5c0 3-3 5-5 5-3 0-5-2-5-5 0 3-3 5-5 5-3 0-5-2-5-5 0 3-3 5-5 5-3 0-5-2-5-5 0 3-3 5-5 5-3 0-5-2-5-5 0 3-3 5-5 5-3 0-5-2-5-5 0 3-3 5-5 5-3 0-5-2-5-5 0 3-3 5-5 5-3 0-5-2-5-5 0 3-3 5-5 5-3 0-5-2-5-5 0 3-3 5-5 5-3 0-5-2-5-5 0 3-3 5-5 5-3 0-5-2-5-5 0 3-3 5-5 5-3 0-5-2-5-5 0 3-3 5-5 5-3 0-5-2-5-5 0 3-3 5-5 5-3 0-5-2-5-5 0 3-3 5-5 5-3 0-5-2-5-5 0 3-3 5-5 5-3 0-5-2-5-5 0 3-3 5-5 5-3 0-5-2-5-5 0 3-3 5-5 5-3 0-5-2-5-5 0 3-3 5-5 5-3 0-5-2-5-5 0 3-3 5-5 5-3 0-5-2-5-5 0 3-3 5-5 5-3 0-5-2-5-5 0 3-3 5-5 5-3 0-5-2-5-5 0 3-3 5-5 5-3 0-5-2-5-5 0 3-3 5-5 5-3 0-5-2-5-5 0 3-3 5-5 5-3 0-5-2-5-5 0 3-3 5-5 5-3 0-5-2-5-5 0 3-3 5-5 5-3 0-5-2-5-5 0 3-3 5-5 5-3 0-5-2-5-5 0 3-3 5-5 5-3 0-5-2-5-5 0 3-3 5-5 5-3 0-5-2-5-5 0 3-3 5-5 5-3 0-5-2-5-5 0 3-3 5-5 5-3 0-5-2-5-5 0 3-3 5-5 5-3 0-5-2-5-5 0 3-3 5-5 5-3 0-5-2-5-5 0 3-3 5-5 5-3 0-5-2-5-5 0 3-3 5-5 5-3 0-5-2-5-5 0 3-3 5-5 5-3 0-5-2-5-5 0 3-3 5-5 5-3 0-5-2-5-5 0 3-3 5-5 5-3 0-5-2-5-5 0 3-3 5-5 5-3 0-5-2-5-5 0 3-3 5-5 5-3 0-5-2-5-5 0 3-3 5-5 5-3 0-5-2-5-5 0 3-3 5-5 5-3 0-5-2-5-5 0 3-3 5-5 5-3 0-5-2-5-5 0 3-3 5-5 5-3 0-5-2-5-5 0 3-3 5-5 5-3 0-5-2-5-5 0 3-3 5-5 5-3 0-5-2-5-5 0 3-3 5-5 5-3 0-5-2-5-5 0 3-3 5-5 5-3 0-5-2-5-5 0 3-3 5-5 5-3 0-5-2-5-5 0 3-3 5-5 5-3 0-5-2-5-5 0 3-3 5-5 5-3 0-5-2-5-5 0 3-3 5-5 5-3 0-5-2-5-5 0 3-3 5-5 5-3 0-5-2-5-5 0 3-3 5-5 5-3 0-5-2-5-5 0 3-3 5-5 5-3 0-5-2-5-5 0 3-3 5-5 5-3 0-5-2-5-5 0 3-3 5-5 5-3 0-5-2-5-5-3 0-5-2-5-5s2-5 5-5c-3 0-5-2-5-5s2-5 5-5c-3 0-5-2-5-5s2-5 5-5c-3 0-5-2-5-5s2-5 5-5c-3 0-5-2-5-5s2-5 5-5c-3 0-5-2-5-5s2-5 5-5c-3 0-5-2-5-5s2-5 5-5c-3 0-5-2-5-5s2-5 5-5c-3 0-5-2-5-5s2-5 5-5c-3 0-5-2-5-5s2-5 5-5" fill="#FFF" filter="url(#a)" stroke="#000" stroke-width="2"/><text font-family="sans-serif" font-size="14" font-weight="bold" lengthAdjust="spacingAndGlyphs" textLength="121" x="1326.25" y="784.948">shared storage</text><path fill="#FFF" filter="url(#a)" stroke="#000" stroke-width="2" d="M690.25 386.953l10-10h127v99l-10 10h-127v-99z"/><path stroke="#000" stroke-width="2" d="M817.25 386.953l9-9M690.25 386.953h127M817.25 386.953v99"/><text font-family="sans-serif" font-size="14" font-weight="bold" lengthAdjust="spacingAndGlyphs" textLength="46" x="731.75" y="402.948">mysql</text><path fill="#FFF" filter="url(#a)" stroke="#000" stroke-width="2" d="M867.25 386.953l10-10h172v99l-10 10h-172v-99z"/><path stroke="#000" stroke-width="2" d="M1039.25 386.953l9-9M867.25 386.953h172M1039.25 386.953v99"/><text font-family="sans-serif" font-size="14" font-weight="bold" lengthAdjust="spacingAndGlyphs" textLength="105" x="901.75" y="402.948">elasticsearch</text><path fill="#FFF" filter="url(#a)" stroke="#000" stroke-width="2" d="M1108.25 386.953l10-10h139v99l-10 10h-139v-99z"/><path stroke="#000" stroke-width="2" d="M1247.25 386.953l9-9M1108.25 386.953h139M1247.25 386.953v99"/><text font-family="sans-serif" font-size="14" font-weight="bold" lengthAdjust="spacingAndGlyphs" textLength="46" x="1155.75" y="402.948">rabbit</text><path fill="#FFF" filter="url(#a)" stroke="#000" stroke-width="2" d="M1297.25 386.953l10-10h159v99l-10 10h-159v-99z"/><path stroke="#000" stroke-width="2" d="M1456.25 386.953l9-9M1297.25 386.953h159M1456.25 386.953v99"/><text font-family="sans-serif" font-size="14" font-weight="bold" lengthAdjust="spacingAndGlyphs" textLength="40" x="1357.75" y="402.948">redis</text><path fill="#FFF" filter="url(#a)" stroke="#000" stroke-width="2" d="M818.25 577.953l10-10h253v99l-10 10h-253v-99z"/><path stroke="#000" stroke-width="2" d="M1071.25 577.953l9-9M818.25 577.953h253M1071.25 577.953v99"/><text font-family="sans-serif" font-size="14" font-weight="bold" lengthAdjust="spacingAndGlyphs" textLength="34" x="928.75" y="593.948">web</text><path fill="#FFF" filter="url(#a)" stroke="#000" stroke-width="2" d="M1121.25 577.953l10-10h169v99l-10 10h-169v-99z"/><path stroke="#000" stroke-width="2" d="M1290.25 577.953l9-9M1121.25 577.953h169M1290.25 577.953v99"/><text font-family="sans-serif" font-size="14" font-weight="bold" lengthAdjust="spacingAndGlyphs" textLength="57" x="1178.25" y="593.948">worker</text><path d="M1701 812.953c0-3 2-5 5-5s5 2 5 5c0-3 2-5 5-5s5 2 5 5c0-3 2-5 5-5s5 2 5 5c0-3 2-5 5-5s5 2 5 5c0-3 2-5 5-5s5 2 5 5c0-3 2-5 5-5s5 2 5 5c0-3 2-5 5-5s5 2 5 5c0-3 2-5 5-5s5 2 5 5c0-3 2-5 5-5s5 2 5 5c0-3 2-5 5-5s5 2 5 5c0-3 2-5 5-5s5 2 5 5c3 0 5 2 5 5s-2 5-5 5c3 0 5 2 5 5s-2 5-5 5c0 3-3 5-5 5-3 0-5-2-5-5 0 3-3 5-5 5-3 0-5-2-5-5 0 3-3 5-5 5-3 0-5-2-5-5 0 3-3 5-5 5-3 0-5-2-5-5 0 3-3 5-5 5-3 0-5-2-5-5 0 3-3 5-5 5-3 0-5-2-5-5 0 3-3 5-5 5-3 0-5-2-5-5 0 3-3 5-5 5-3 0-5-2-5-5 0 3-3 5-5 5-3 0-5-2-5-5 0 3-3 5-5 5-3 0-5-2-5-5 0 3-3 5-5 5-3 0-5-2-5-5-3 0-5-2-5-5s2-5 5-5c-3 0-5-2-5-5s2-5 5-5" fill="#FFF" filter="url(#a)" stroke="#000" stroke-width="1.5"/><text font-family="sans-serif" font-size="14" lengthAdjust="spacingAndGlyphs" textLength="99" x="1708" y="828.948">public internet</text><path d="M973 813.453c0-10 31.5-10 31.5-10s31.5 0 31.5 10v21.297c0 10-31.5 10-31.5 10s-31.5 0-31.5-10v-21.297" fill="#0FF" filter="url(#a)" stroke="#000" stroke-width="1.5"/><path d="M973 813.453c0 10 31.5 10 31.5 10s31.5 0 31.5-10" fill="none" stroke="#000" stroke-width="1.5"/><text font-family="sans-serif" font-size="14" lengthAdjust="spacingAndGlyphs" textLength="43" x="983" y="836.448">./docs</text><path d="M749.25 813.453c0-10 39-10 39-10s39 0 39 10v21.297c0 10-39 10-39 10s-39 0-39-10v-21.297" fill="gray" filter="url(#a)" stroke="#000" stroke-width="1.5"/><path d="M749.25 813.453c0 10 39 10 39 10s39 0 39-10" fill="none" stroke="#000" stroke-width="1.5"/><text font-family="sans-serif" font-size="14" lengthAdjust="spacingAndGlyphs" textLength="58" x="759.25" y="836.448">./invenio</text><path d="M863 813.453c0-10 37.5-10 37.5-10s37.5 0 37.5 10v21.297c0 10-37.5 10-37.5 10s-37.5 0-37.5-10v-21.297" fill="gray" filter="url(#a)" stroke="#000" stroke-width="1.5"/><path d="M863 813.453c0 10 37.5 10 37.5 10s37.5 0 37.5-10" fill="none" stroke="#000" stroke-width="1.5"/><text font-family="sans-serif" font-size="14" lengthAdjust="spacingAndGlyphs" textLength="55" x="873" y="836.448">./scripts</text><path d="M1530 813.453c0-10 59.5-10 59.5-10s59.5 0 59.5 10v21.297c0 10-59.5 10-59.5 10s-59.5 0-59.5-10v-21.297" fill="#FFF" filter="url(#a)" stroke="#000" stroke-width="1.5"/><path d="M1530 813.453c0 10 59.5 10 59.5 10s59.5 0 59.5-10" fill="none" stroke="#000" stroke-width="1.5"/><text font-family="sans-serif" font-size="14" lengthAdjust="spacingAndGlyphs" textLength="99" x="1540" y="836.448">/home/invenio</text><path d="M1230.25 813.453c0-10 132-10 132-10s132 0 132 10v21.297c0 10-132 10-132 10s-132 0-132-10v-21.297" fill="#FFF" filter="url(#a)" stroke="#000" stroke-width="1.5"/><path d="M1230.25 813.453c0 10 132 10 132 10s132 0 132-10" fill="none" stroke="#000" stroke-width="1.5"/><text font-family="sans-serif" font-size="14" lengthAdjust="spacingAndGlyphs" textLength="244" x="1240.25" y="836.448">/usr/local/var/invenio.base-instance</text><path d="M1143.25 813.453c0-10 26-10 26-10s26 0 26 10v21.297c0 10-26 10-26 10s-26 0-26-10v-21.297" fill="#FFF" filter="url(#a)" stroke="#000" stroke-width="1.5"/><path d="M1143.25 813.453c0 10 26 10 26 10s26 0 26-10" fill="none" stroke="#000" stroke-width="1.5"/><text font-family="sans-serif" font-size="14" lengthAdjust="spacingAndGlyphs" textLength="32" x="1153.25" y="836.448">/tmp</text><path fill="gray" filter="url(#a)" stroke="#000" stroke-width="1.5" d="M6 234.953l10-10h113v36.297l-10 10H6v-36.297z"/><path stroke="#000" stroke-width="1.5" d="M119 234.953l9-9M6 234.953h113M119 234.953v36.297"/><text font-family="sans-serif" font-size="14" lengthAdjust="spacingAndGlyphs" textLength="83" x="21" y="257.948">mysql:latest</text><path fill="gray" filter="url(#a)" stroke="#000" stroke-width="1.5" d="M372.25 234.953l10-10h164v36.297l-10 10h-164v-36.297z"/><path stroke="#000" stroke-width="1.5" d="M536.25 234.953l9-9M372.25 234.953h164M536.25 234.953v36.297"/><text font-family="sans-serif" font-size="14" lengthAdjust="spacingAndGlyphs" textLength="134" x="387.25" y="257.948">elasticsearch:latest</text><path fill="gray" filter="url(#a)" stroke="#000" stroke-width="1.5" d="M1149.25 234.953l10-10h202v36.297l-10 10h-202v-36.297z"/><path stroke="#000" stroke-width="1.5" d="M1351.25 234.953l9-9M1149.25 234.953h202M1351.25 234.953v36.297"/><text font-family="sans-serif" font-size="14" lengthAdjust="spacingAndGlyphs" textLength="172" x="1164.25" y="257.948">rabbitmq:3-management</text><path fill="gray" filter="url(#a)" stroke="#000" stroke-width="1.5" d="M1626 234.953l10-10h107v36.297l-10 10h-107v-36.297z"/><path stroke="#000" stroke-width="1.5" d="M1733 234.953l9-9M1626 234.953h107M1733 234.953v36.297"/><text font-family="sans-serif" font-size="14" lengthAdjust="spacingAndGlyphs" textLength="77" x="1641" y="257.948">redis:latest</text><path fill="gray" filter="url(#a)" stroke="#000" stroke-width="1.5" d="M2190 38.953l10-10h137V65.25l-10 10h-137V38.953z"/><path stroke="#000" stroke-width="1.5" d="M2327 38.953l9-9M2190 38.953h137M2327 38.953V75.25"/><text font-family="sans-serif" font-size="14" lengthAdjust="spacingAndGlyphs" textLength="107" x="2205" y="61.948">python:2.7-slim</text><path fill="gray" filter="url(#a)" stroke="#000" stroke-width="1.5" d="M2197.25 234.953l10-10h122v36.297l-10 10h-122v-36.297z"/><path stroke="#000" stroke-width="1.5" d="M2319.25 234.953l9-9M2197.25 234.953h122M2319.25 234.953v36.297"/><text font-family="sans-serif" font-size="14" lengthAdjust="spacingAndGlyphs" textLength="92" x="2212.25" y="257.948">invenio:latest</text><path fill="gray" filter="url(#a)" stroke="#000" stroke-width="1.5" d="M1491 430.953l10-10h177v36.297l-10 10h-177v-36.297z"/><path stroke="#000" stroke-width="1.5" d="M1668 430.953l9-9M1491 430.953h177M1668 430.953v36.297"/><text font-family="sans-serif" font-size="14" lengthAdjust="spacingAndGlyphs" textLength="147" x="1506" y="453.948">invenio_overlay:latest</text><path fill="#FEFECE" filter="url(#a)" stroke="#000" stroke-width="1.5" d="M734 425.953h69v36.297h-69z"/><path fill="#FEFECE" stroke="#000" stroke-width="1.5" d="M729 430.953h10v5h-10zM729 452.25h10v5h-10z"/><text font-family="sans-serif" font-size="14" lengthAdjust="spacingAndGlyphs" textLength="49" x="744" y="448.948">mysqld</text><path fill="#FEFECE" filter="url(#a)" stroke="#000" stroke-width="1.5" d="M913 425.953h111v36.297H913z"/><path fill="#FEFECE" stroke="#000" stroke-width="1.5" d="M908 430.953h10v5h-10zM908 452.25h10v5h-10z"/><text font-family="sans-serif" font-size="14" lengthAdjust="spacingAndGlyphs" textLength="91" x="923" y="448.948">elasticsearch</text><path fill="#FEFECE" filter="url(#a)" stroke="#000" stroke-width="1.5" d="M1152 425.953h81v36.297h-81z"/><path fill="#FEFECE" stroke="#000" stroke-width="1.5" d="M1147 430.953h10v5h-10zM1147 452.25h10v5h-10z"/><text font-family="sans-serif" font-size="14" lengthAdjust="spacingAndGlyphs" textLength="61" x="1162" y="448.948">rabbitmq</text><path fill="#FEFECE" filter="url(#a)" stroke="#000" stroke-width="1.5" d="M1340.25 425.953h102v36.297h-102z"/><path fill="#FEFECE" stroke="#000" stroke-width="1.5" d="M1335.25 430.953h10v5h-10zM1335.25 452.25h10v5h-10z"/><text font-family="sans-serif" font-size="14" lengthAdjust="spacingAndGlyphs" textLength="82" x="1350.25" y="448.948">redis-server</text><path fill="#FEFECE" filter="url(#a)" stroke="#000" stroke-width="1.5" d="M862 616.953h195v36.297H862z"/><path fill="#FEFECE" stroke="#000" stroke-width="1.5" d="M857 621.953h10v5h-10zM857 643.25h10v5h-10z"/><text font-family="sans-serif" font-size="14" lengthAdjust="spacingAndGlyphs" textLength="175" x="872" y="639.948">inveniomanage runserver</text><path fill="#FEFECE" filter="url(#a)" stroke="#000" stroke-width="1.5" d="M1145.25 616.953h112v36.297h-112z"/><path fill="#FEFECE" stroke="#000" stroke-width="1.5" d="M1140.25 621.953h10v5h-10zM1140.25 643.25h10v5h-10z"/><text font-family="sans-serif" font-size="14" lengthAdjust="spacingAndGlyphs" textLength="92" x="1155.25" y="639.948">celery worker</text><ellipse cx="330.25" cy="435.953" fill="#FEFECE" filter="url(#a)" rx="8" ry="8" stroke="#A80036" stroke-width="2"/><text font-family="sans-serif" font-size="14" lengthAdjust="spacingAndGlyphs" textLength="152" x="254.25" y="457.948">TTY via `docker exec`</text><ellipse cx="552.25" cy="435.953" fill="#FEFECE" filter="url(#a)" rx="8" ry="8" stroke="#A80036" stroke-width="2"/><text font-family="sans-serif" font-size="14" lengthAdjust="spacingAndGlyphs" textLength="222" x="441.25" y="457.948">webinterface at localhost:28080</text><ellipse cx="1004.5" cy="1003.953" fill="#FEFECE" filter="url(#a)" rx="8" ry="8" stroke="#A80036" stroke-width="2"/><text font-family="sans-serif" font-size="14" lengthAdjust="spacingAndGlyphs" textLength="89" x="960" y="1025.948">builded docs</text><ellipse cx="802.5" cy="1003.953" fill="#FEFECE" filter="url(#a)" rx="8" ry="8" stroke="#A80036" stroke-width="2"/><text font-family="sans-serif" font-size="14" lengthAdjust="spacingAndGlyphs" textLength="217" x="694" y="1025.948">live code and template updates</text><ellipse cx="250.5" cy="239.953" fill="#FEFECE" filter="url(#a)" rx="8" ry="8" stroke="#A80036" stroke-width="2"/><text font-family="sans-serif" font-size="14" lengthAdjust="spacingAndGlyphs" textLength="173" x="164" y="261.948">mysql at localhost:23306</text><ellipse cx="693.25" cy="239.953" fill="#FEFECE" filter="url(#a)" rx="8" ry="8" stroke="#A80036" stroke-width="2"/><text font-family="sans-serif" font-size="14" lengthAdjust="spacingAndGlyphs" textLength="224" x="581.25" y="261.948">elasticsearch at localhost:29200</text><ellipse cx="1493.25" cy="239.953" fill="#FEFECE" filter="url(#a)" rx="8" ry="8" stroke="#A80036" stroke-width="2"/><text font-family="sans-serif" font-size="14" lengthAdjust="spacingAndGlyphs" textLength="194" x="1396.25" y="261.948">rabbitmq at localhost:25672</text><ellipse cx="977.5" cy="239.953" fill="#FEFECE" filter="url(#a)" rx="8" ry="8" stroke="#A80036" stroke-width="2"/><text font-family="sans-serif" font-size="14" lengthAdjust="spacingAndGlyphs" textLength="273" x="841" y="261.948">rabbitmq web admin at localhost:25673</text><ellipse cx="1970.25" cy="239.953" fill="#FEFECE" filter="url(#a)" rx="8" ry="8" stroke="#A80036" stroke-width="2"/><text font-family="sans-serif" font-size="14" lengthAdjust="spacingAndGlyphs" textLength="384" x="1778.25" y="261.948">redis + celery debug (e.g. via flower) at localhost:26379</text><path d="M148.467 270.85c239.314 45.897 362.065-71.478 531.783 90.103 4.806 4.576 8.472 10.118 11.252 16.138M146.92 277.68l-18.156-10.926 21.006-2.782-2.85 13.707z" fill="none" stroke="#000"/><path d="M565.94 273.876c90.812 22.692 212.795 57.124 253.31 87.077 22.56 16.68 39.07 45.293 48.103 63.925M564.24 280.666l-17.74-11.59 21.094-2.002-3.355 13.592zM1218.12 274.185c-27.04 20.32-62.37 51.28-82.87 86.768-2.97 5.15-5.48 10.732-7.6 16.482" fill="none" stroke="#000"/><path stroke="#000" d="M1222.38 271.016l-9.613 2.14 5.595.836-.835 5.595 4.853-8.57z"/><path d="M1606.61 272.063c-104.33 31.2-277.39 83.54-282.36 88.89-4.43 4.772-7.9 10.367-10.6 16.354M1604.69 265.33l21.17.982-17.16 12.43-4.01-13.413zM2263.25 95.437V224.66M2256.25 95.207l7-20 7 20h-14zM2177.69 273.4c-133.32 38.09-388.53 111.007-516.41 147.545M2176.06 266.583l21.16 1.236-17.31 12.224-3.85-13.46zM1526.75 475.983c-20.99 9.962-45.28 19.963-68.5 25.97-132.32 34.225-509.552-39.322-613 50-5.143 4.44-9.045 9.974-11.986 16.056M1523.94 469.564l21.03-2.603-14.82 15.15-6.21-12.546zM1533.31 477.925c-72.64 47.015-200.8 129.97-233.37 151.05" fill="none" stroke="#000"/><path fill="none" stroke="#000" d="M1529.59 471.995l20.59-4.99-12.98 16.743-7.61-11.753zM818.295 642.597c-18.087 15.56-62.47 56.388-85.045 100.356-1.9 3.7-3.612 7.592-5.157 11.588"/><path stroke="#000" d="M726.356 759.272l6.856-7.07-5.133 2.376-2.378-5.133.654 9.827z"/><path d="M1285.28 676.506c-2.78 6.33-6.65 12.176-12.03 16.447-94.41 74.902-449-29.008-540 50-3.863 3.354-7.016 7.336-9.584 11.705" fill="none" stroke="#000"/><path stroke="#000" d="M721.29 759.147l7.745-6.083-5.406 1.664-1.665-5.407-.675 9.827z"/><path d="M834.116 676.724c2.69 6.08 6.297 11.785 11.134 16.23 69.7 64.03 128.807-3.328 207 50 21.11 14.395 36.77 39.566 46.08 57.836" fill="none" stroke="#000"/><path stroke="#000" d="M1100.57 805.276l-.417-9.84-1.805 5.36-5.36-1.804 7.582 6.284z"/><path d="M1283.9 676.632c-2.63 6.018-6.1 11.73-10.65 16.32-48.3 48.7-99.9-.787-146 50-3.2 3.52-5.88 7.48-8.13 11.702" fill="none" stroke="#000"/><path stroke="#000" d="M1116.83 759.332l7.537-6.34-5.348 1.845-1.846-5.348-.344 9.842z"/><path d="M789.534 466.014l152.33 150.736" fill="none" stroke="#000" stroke-dasharray="7.0,7.0"/><path stroke="#000" d="M785.537 462.06l3.584 9.173-.03-5.657 5.658-.03-9.21-3.487z"/><path d="M967.18 467.406c-1.82 38.207-5.478 115.053-7.11 149.344" fill="none" stroke="#000" stroke-dasharray="7.0,7.0"/><path stroke="#000" d="M967.435 462.06l-4.422 8.8 4.185-3.807 3.806 4.186-3.57-9.18z"/><path d="M1177.68 466.333c-8.23 11.26-19.11 24.915-30.43 35.62-50.57 47.808-119.55 91.772-158.346 114.92" fill="none" stroke="#000" stroke-dasharray="7.0,7.0"/><path stroke="#000" d="M1180.81 461.988l-8.506 4.964 5.583-.907.908 5.584 2.015-9.642z"/><path d="M1375.94 466c-9.99 12.245-24.04 26.988-39.69 35.953-82.13 47.038-117.87 18.15-207 50-50.61 18.084-106.14 46.65-139.52 64.848" fill="none" stroke="#000" stroke-dasharray="7.0,7.0"/><path stroke="#000" d="M1379.16 461.954l-8.744 4.533 5.622-.627.628 5.622 2.494-9.528z"/><path d="M795.332 465.252c17.45 12.214 41.072 27.188 63.918 36.7 90.168 37.546 124.024 11.998 214 50 40.11 16.944 81.69 46.11 106.18 64.706" fill="none" stroke="#000" stroke-dasharray="7.0,7.0"/><path stroke="#000" d="M791.033 462.212l5.04 8.462-.958-5.575 5.576-.958-9.657-1.93z"/><path d="M993.373 465.332c46.147 37.432 143.617 116.494 186.667 151.418" fill="none" stroke="#000" stroke-dasharray="7.0,7.0"/><path stroke="#000" d="M989.338 462.06l4.47 8.776-.587-5.627 5.627-.587-9.51-2.564z"/><path d="M1193.32 467.406c1.82 38.207 5.48 115.053 7.11 149.344" fill="none" stroke="#000" stroke-dasharray="7.0,7.0"/><path stroke="#000" d="M1193.06 462.06l-3.57 9.178 3.807-4.185 4.185 3.807-4.422-8.8z"/><path d="M1373.12 465.833c-10.28 11.282-23.69 25.114-36.87 36.12-30.75 25.674-46.06 22.298-75 50-20.64 19.76-39.19 47.35-50.02 64.945" fill="none" stroke="#000" stroke-dasharray="7.0,7.0"/><path stroke="#000" d="M1376.48 462.112l-9 4.002 5.65-.29.29 5.65 3.06-9.362z"/><path d="M575.61 461.067c58.093 40.07 206.97 142.764 242.8 167.477M353.106 461.052c18.33 12.388 45.05 29.295 70.144 40.9C575.74 572.48 776.6 622.16 818.42 632.118" fill="none" stroke="#000" stroke-dasharray="7.0,7.0"/><path d="M1004.25 849.97v139.656" fill="none" stroke="#000"/><path stroke="#000" d="M1004.25 994.88l4-9-4 4-4-4 4 9zM1004.25 844.507l-4 9 4-4 4 4-4-9z"/><path d="M790.097 849.496c2.912 38.683 8.49 112.78 10.943 145.385" fill="none" stroke="#000"/><path stroke="#000" d="M789.722 844.507l-3.312 9.275 3.688-4.29 4.29 3.69-4.666-8.675z"/><path d="M887.567 849.024c-20.31 38.55-59.6 113.12-76.85 145.857" fill="none" stroke="#000"/><path stroke="#000" d="M889.948 844.507l-7.734 6.098 5.404-1.674 1.674 5.404.656-9.827z"/><path d="M319.658 265.033c118.393 27.708 347.923 82.75 360.592 95.92 4.503 4.68 7.984 10.217 10.66 16.168M714.303 265.01c26.244 20.584 71.69 58.152 104.947 95.943 19.64 22.316 38.23 51.773 48.273 68.626M1829.94 264.988c-178.85 21.693-469.38 61.63-505.69 95.965-4.83 4.57-8.55 10.11-11.39 16.128M1410.28 264.986c-93.58 19.73-237.62 55.614-275.03 95.967-4.43 4.775-7.89 10.373-10.59 16.36M988.862 265.16c27.488 38.367 95.998 133.98 119.398 166.646M833.106 676.646c2.79 6.315 6.694 12.12 12.144 16.307 144.782 111.205 651.03-19.124 820 50 30.6 12.517 58.1 39.54 74.9 58.708" fill="none" stroke="#000" stroke-dasharray="7.0,7.0"/><path stroke="#000" d="M1743.78 805.866l-2.848-9.428-.417 5.64-5.642-.416 8.907 4.204z"/><path d="M1300.14 636.924c40.73 5.267 230.49 32.915 365.11 106.03 28.36 15.402 55.57 40.835 72.94 58.887" fill="none" stroke="#000" stroke-dasharray="7.0,7.0"/><path stroke="#000" d="M1741.96 805.802l-3.317-9.273-.134 5.654-5.656-.134 9.106 3.752z"/></svg>